<svg xmlns="http://www.w3.org/2000/svg" xml:space="preserve" viewBox="0 0 210 210">
  <circle cx="105" cy="105" r="90.2" fill="#fff"/>
  <g fill="none" stroke="#000" transform="translate(8.3 11.2)">
    <path stroke-width="14.1" d="m155.4 140.2-57-52.3m2.5-70.9v144.5m-54.6-21.3 57.1-52.3"/>
    <circle cx="101.1" cy="89.9" r="72.5" stroke-width="14.2"/>
  </g>
  <g fill="none" stroke="#fc0000" transform="translate(-.5 9)">
    <path stroke-width="14.2" d="M160.4 146.7 102.7 94m2.6-71.7v146m-55.1-21.6L108 94"/>
    <circle cx="105.5" cy="96" r="73.1" stroke-width="14.4"/>
  </g>
  <circle cx="-105" cy="105" r="90.2" fill="none" stroke="#000" stroke-width="18" transform="scale(-1 1)"/>
  <circle cx="105" cy="105" r="98.8" fill="none" stroke="#fcfcfc" stroke-width="2"/>
  <circle cx="105" cy="105" r="80.5" fill="none" stroke="#fcfcfc" stroke-width="2"/>
  <path fill="#fff" d="m54.3 25.8 1.9 3.4 1.4-.8q.8-.5 1-1.2.3-.7-.2-1.5-.4-.8-1.2-1-.7-.1-1.5.3zm-1.8-.3 2.6-1.5q1.5-.8 2.7-.6 1.1.3 1.9 1.6.7 1.3.3 2.4-.3 1.1-1.8 2l-1.4.8 2 3.6-1.2.7zm8.3-4.5 5.6-2.5.5 1-4.3 2 1.2 2.8 4.1-1.9.5 1-4.1 2 1.5 3.3 4.4-2 .5 1.1-5.7 2.6zm11.8-3.5.3 5.4 2.8-1zm-1.2-.9 1.6-.5 6.3 8.7-1.3.4-1.6-2.3-3.4 1.2.2 2.8-1.4.5zm15.3 6-1 .7-1 .4q-2 .4-3.4-.7-1.4-1-2-3.5-.6-2.5.2-4.1.7-1.6 2.6-2l1.2-.2 1.2.1.3 1.4-1.2-.4-1.2.1q-1.3.3-1.7 1.5-.5 1.2 0 3.2t1.4 3q1 .8 2.3.5l1-.5q.6-.4 1-.9zm1-10.3 6.1-.8.2 1.1-4.7.7.4 3 4.5-.6.2 1.1-4.5.7.5 3.7 4.8-.7.2 1.1-6.2 1zm9-1.1h1.4l.3 4.5 4-4.8h1.7l-3.8 4.3 4.4 6H103l-3.6-5-1 1.2.2 4h-1.4zm10-.3 6 .3v1.2l-4.8-.3-.1 3 4.5.3v1.2l-4.6-.3-.1 3.8 4.8.2v1.2l-6.3-.3zm9.4.6 6 .9-.2 1.1-4.6-.6-.5 3 4.5.6-.2 1.2-4.4-.7-.5 3.7 4.7.7-.1 1.2-6.2-.9zm10.4 3-1 3.7 1.7.4q.9.2 1.5-.2.7-.3.9-1.2.2-1-.2-1.5-.4-.6-1.3-.9zm-1.1-1.5 3 .7q1.6.4 2.3 1.4.7 1 .3 2.4-.3 1.5-1.4 2-1 .6-2.7.2l-1.6-.4-1 4-1.3-.3zm9.2 2.4 5.7 2-.3 1-4.5-1.4-1 2.8 4.3 1.5-.4 1.1-4.3-1.5-1.2 3.6 4.6 1.5-.4 1.1-5.9-2zm10.2 9.8q.4.3.6.8.2.5.2 1.8l.1 3.1-1.3-.6v-2.9q-.1-1.2-.4-1.6-.2-.5-.8-.8l-1.2-.5-1.8 4-1.3-.7 4.2-9.3 2.6 1.1q1.6.7 2 1.8.6 1 0 2.4-.4 1-1.2 1.3-.8.3-1.7 0zm-.9-5.1-1.5 3.3 1.4.6q1 .5 1.6.2.6-.2 1-1 .3-.8 0-1.5-.2-.6-1.1-1zm12.8 5.7L156 27q-.3-.7-.8-1.2-.4-.5-1-.8-.8-.5-1.6-.4-.7.1-1 .8-.4.6-.3 1.1.2.5 1 1.2l.5.5q1 1 1.3 2 .2 1-.4 2-.7 1.3-1.9 1.5-1.2.3-2.7-.6l-1.2-.9-1-1 .7-1.4q.5.9 1 1.4l1 1q1 .4 1.7.3.8-.1 1.2-.8.4-.7.2-1.3-.1-.5-.9-1.2l-.5-.5q-1.1-1-1.4-1.9-.2-.9.4-1.9.6-1.1 1.9-1.4 1.2-.3 2.5.5l1 .7 1 1z" aria-label="PEACEKEEPERS" font-family="DejaVu Sans Mono" font-size="14.1" style="line-height:1.25;-inkscape-font-specification:&quot;DejaVu Sans Mono&quot;;text-align:center;white-space:pre;shape-padding:1.27196" text-anchor="middle"/>
  <path fill="#fff" d="M75.7 190.1q.8-2 .7-3.2 0-1-1-1.4-1-.4-1.8.3-.8.8-1.6 2.9-.9 2-.8 3.1 0 1.1 1 1.5 1 .4 1.8-.3.8-.8 1.7-2.9zm1.3.6q-1 2.5-2.3 3.4-1.2.9-2.9.3-1.6-.7-1.9-2.2-.3-1.6.7-4 1-2.6 2.3-3.5 1.3-1 2.9-.3 1.6.7 1.9 2.2.3 1.6-.7 4zm3.3-4.4L86 188l-.3 1.1-4.5-1.3-.8 3 4 1.1-.3 1.1-4-1.1-1.4 4.7-1.4-.4zm13.4 3.2 7.8.7-.1 1.2-3.2-.3-.9 9H96l.9-9.1-3.2-.3zm8.2 7v-6.3h1.4v8q0 .4.2.5.2.5.6.7.4.2 1 .2t1-.2q.4-.2.7-.7l.1-.4v-8.1h1.4v6.3q0 1.6-.2 2.3-.2.7-.6 1-.5.5-1 .7l-1.4.2q-.7 0-1.3-.2-.6-.2-1-.6-.5-.4-.7-1.1-.2-.7-.2-2.3zm14.8 3-1 .5-1.2.2q-2 .2-3.2-1-1.2-1.4-1.5-3.9-.2-2.5.8-4t2.9-1.7h1.2l1 .3.2 1.5q-.5-.4-1.1-.6h-1.2q-1.4 0-2 1.1-.5 1.2-.3 3.3.2 2 1 3 .7 1 2 .9.7 0 1.2-.3.6-.3 1-.8zm6.1-10.9.3 1.4q-.7-.3-1.4-.3h-1.3q-1 .2-1.4.7-.5.6-.4 1.4.2.6.6 1 .4.2 1.5.2h.7q1.5.1 2.3.7.8.6 1 1.8.3 1.5-.4 2.4-.8 1-2.5 1.2-.7.2-1.5.2l-1.5-.2-.3-1.5 1.6.5h1.5q1-.3 1.5-.8.5-.6.3-1.4-.1-.8-.6-1.1-.4-.4-1.5-.4h-.7q-1.5 0-2.3-.6-.7-.5-1-1.6-.2-1.3.6-2.3.7-1 2.2-1.3l1.3-.1 1.4.1zm8 2.8q-.7-2.1-1.4-3-.7-.7-1.8-.5-1 .3-1.1 1.4-.2 1 .4 3.2.6 2.2 1.4 3 .7.8 1.7.5 1-.3 1.2-1.3.2-1-.5-3.3zm1.3-.4q.8 2.6.3 4.1-.4 1.5-2 2-1.8.5-3-.5-1.1-1-1.9-3.7-.7-2.5-.3-4 .5-1.6 2.1-2 1.7-.5 2.9.5t2 3.6zm-.7-5.2 1.7-.6 6.3 6.6-3-8 1.2-.4 3.8 9.6-1.7.6-6.3-6.6 3 7.9-1.2.5z" aria-label="OF TUCSON" font-family="DejaVu Sans Mono" font-size="14.1" style="line-height:1.25;-inkscape-font-specification:&quot;DejaVu Sans Mono&quot;;text-align:center;white-space:pre;shape-padding:1.27196" text-anchor="middle"/>
</svg>
