<svg width="210mm" height="210mm" viewBox="0 0 210 210" xml:space="preserve" xmlns="http://www.w3.org/2000/svg"><circle style="display:inline;fill:#fff;fill-opacity:1;stroke:none;stroke-width:14.523;stroke-dasharray:none;stroke-opacity:1" cx="105" cy="105" r="90.238"/><g transform="translate(7.383 12.082)"><path style="fill:none;stroke:#000;stroke-width:14;stroke-linecap:butt;stroke-linejoin:miter;stroke-dasharray:none;stroke-opacity:1" d="M146.516 147.618 89.67 95.528M92.196 24.918v143.978M37.875 147.618l56.847-52.09"/><circle style="fill:none;fill-opacity:1;stroke:#000;stroke-width:14.1807;stroke-dasharray:none;stroke-opacity:1" cx="92.419" cy="97.581" r="72.16"/></g><g transform="translate(-.53 8.996)"><path style="fill:none;stroke:#fc0000;stroke-width:14;stroke-linecap:butt;stroke-linejoin:miter;stroke-dasharray:none;stroke-opacity:1" d="m164.825 141.378-56.847-52.09M110.505 18.678v143.978M56.184 141.378l56.847-52.09"/><circle style="fill:none;fill-opacity:1;stroke:#fc0000;stroke-width:14.1807;stroke-dasharray:none;stroke-opacity:1" cx="110.727" cy="91.341" r="72.16"/></g><circle style="display:inline;fill:none;fill-opacity:1;stroke:#000;stroke-width:18;stroke-dasharray:none;stroke-opacity:1" cx="-105" cy="105" r="90.238" transform="scale(-1 1)"/><circle style="fill:none;fill-opacity:1;stroke:#fcfcfc;stroke-width:2;stroke-dasharray:none;stroke-opacity:1" cx="105" cy="105" r="98.834"/><circle style="fill:none;fill-opacity:1;stroke:#fcfcfc;stroke-width:2.01231;stroke-dasharray:none;stroke-opacity:1" cx="105" cy="105" r="80.494"/><path style="font-size:14.1111px;line-height:1.25;font-family:'DejaVu Sans Mono';-inkscape-font-specification:'DejaVu Sans Mono';text-align:center;text-anchor:middle;white-space:pre;shape-padding:1.27196;fill:#fff" d="m54.273 25.833 1.914 3.358 1.4-.798q.839-.477 1.053-1.186.22-.713-.233-1.51-.453-.795-1.17-.966-.719-.177-1.563.303zm-1.775-.305 2.61-1.487q1.497-.853 2.658-.61 1.158.236 1.905 1.547.753 1.323.366 2.44-.38 1.113-1.883 1.969l-1.401.798 2.046 3.592-1.21.69zm8.308-4.534 5.565-2.51.482 1.069-4.296 1.937 1.252 2.776 4.107-1.852.482 1.067-4.108 1.853 1.533 3.398 4.415-1.991.482 1.068-5.685 2.563zm11.827-3.505.315 5.455 2.777-.95zM71.44 16.6l1.597-.546 6.308 8.715-1.363.466-1.584-2.291-3.41 1.166.163 2.777-1.362.466zm15.257 6.005q-.45.399-.96.663-.51.27-1.12.417-1.923.461-3.314-.644-1.385-1.106-1.976-3.572-.588-2.452.15-4.074.742-1.63 2.652-2.089.61-.146 1.186-.135.575.003 1.156.154l.333 1.387q-.594-.29-1.215-.367-.62-.078-1.197.06-1.32.317-1.732 1.492-.413 1.176.08 3.233.492 2.05 1.393 2.912.9.86 2.22.544.59-.141 1.102-.49.518-.352.91-.878zm1.06-10.279 6.043-.859.165 1.16-4.666.663.429 3.015 4.461-.634.165 1.16-4.461.634.524 3.69 4.796-.681.165 1.16-6.174.877zm8.98-1.14 1.397-.066.215 4.57 4.128-4.774 1.631-.077-3.8 4.386 4.401 5.884-1.68.079-3.593-4.99-1.007 1.178.19 4.02-1.398.065zm9.874-.291 6.098.287-.055 1.17-4.708-.222-.143 3.042 4.501.212-.055 1.17-4.501-.212-.176 3.724 4.839.228-.056 1.17-6.228-.294zm9.445.618 6.043.86-.164 1.16-4.666-.664-.43 3.015 4.462.635-.165 1.16-4.461-.635-.525 3.69 4.796.682-.165 1.16-6.174-.878zm10.43 2.941-.9 3.759 1.567.376q.938.225 1.58-.145.648-.37.862-1.26.213-.892-.192-1.506-.404-.621-1.348-.848zm-1.086-1.437 2.921.701q1.675.402 2.357 1.373.682.964.33 2.432-.355 1.48-1.4 2.03-1.04.552-2.722.148l-1.567-.376-.965 4.02-1.353-.324zm9.162 2.376 5.776 1.976-.379 1.108-4.46-1.525-.985 2.882 4.264 1.458-.38 1.108-4.263-1.458-1.206 3.527 4.583 1.567-.379 1.109-5.9-2.018zm10.202 9.771q.433.347.62.854.19.501.234 1.776l.12 3.138-1.363-.615-.05-2.872q-.028-1.23-.287-1.694-.25-.468-.872-.748l-1.212-.547-1.788 3.963-1.275-.575 4.23-9.377 2.613 1.178q1.545.697 2.053 1.765.508 1.069-.086 2.388-.42.93-1.195 1.29-.766.358-1.742.076zm-.839-5.08-1.5 3.33 1.387.625q.91.411 1.541.204.63-.207 1.01-1.049.365-.81.08-1.452-.275-.646-1.18-1.054zm12.795 5.67-.699 1.227q-.35-.667-.804-1.164-.448-.493-1.011-.814-.856-.488-1.582-.37-.722.113-1.107.789-.338.593-.192 1.088.152.5.925 1.217l.552.505q1.09 1.01 1.307 1.966.217.956-.4 2.04-.727 1.275-1.9 1.495-1.172.22-2.68-.64-.629-.357-1.185-.857-.56-.493-1.047-1.127l.734-1.287q.44.829.934 1.38.5.555 1.123.91.916.522 1.657.404.744-.123 1.164-.86.382-.67.23-1.224-.146-.551-.905-1.237l-.562-.518q-1.085-.991-1.323-1.88-.239-.89.307-1.848.682-1.197 1.893-1.458 1.221-.264 2.556.496.515.294 1.016.737.504.438 1 1.03z" aria-label="PEACEKEEPERS"/><path style="font-size:14.1111px;line-height:1.25;font-family:'DejaVu Sans Mono';-inkscape-font-specification:'DejaVu Sans Mono';text-align:center;text-anchor:middle;white-space:pre;shape-padding:1.27196;fill:#fff" d="M75.658 190.131q.834-2.108.755-3.184-.072-1.073-1.059-1.463-.98-.388-1.773.343-.787.734-1.62 2.842-.831 2.102-.76 3.175.08 1.076 1.06 1.463.986.39 1.77-.337.793-.73 1.627-2.839zm1.352.535q-.988 2.499-2.27 3.415-1.274.918-2.895.277-1.621-.64-1.925-2.176-.304-1.536.689-4.048.99-2.505 2.265-3.423 1.281-.916 2.896-.278 1.62.641 1.923 2.183.308 1.544-.683 4.05zm3.277-4.36 5.816 1.687-.326 1.125-4.473-1.298-.845 2.912 4.056 1.177-.326 1.125-4.057-1.177-1.369 4.718-1.343-.39zm13.398 3.18 7.813.738-.11 1.167-3.204-.303-.856 9.075-1.393-.131.857-9.075-3.217-.304zm8.188 7.063v-6.34h1.398v6.973q0 .751.042 1.075.041.317.145.49.22.406.634.613.42.206 1.012.206.6 0 1.013-.206.414-.207.641-.614.103-.172.145-.489.041-.317.041-1.06v-6.988h1.392v6.34q0 1.577-.2 2.246-.193.661-.675 1.095-.455.407-1.04.606-.586.2-1.316.2-.724 0-1.31-.2-.585-.2-1.047-.606-.475-.427-.675-1.102-.2-.682-.2-2.24zm14.815 2.888q-.502.331-1.044.521-.542.197-1.166.256-1.97.186-3.191-1.104-1.216-1.29-1.454-3.814-.237-2.511.721-4.013.965-1.51 2.92-1.695.624-.059 1.193.033.569.084 1.124.316l.134 1.42q-.547-.37-1.151-.535-.604-.165-1.194-.109-1.351.128-1.925 1.234-.574 1.106-.375 3.212.198 2.099.97 3.078.77.98 2.121.852.604-.057 1.16-.331.562-.275 1.023-.74zm6.128-10.806.264 1.388q-.699-.281-1.367-.364-.661-.085-1.297.037-.968.184-1.444.745-.476.553-.33 1.318.127.67.56.953.44.28 1.493.325l.748.026q1.485.06 2.27.648.785.586 1.019 1.812.274 1.441-.475 2.37-.749.928-2.454 1.253-.71.135-1.458.116-.746-.012-1.528-.178l-.277-1.455q.872.345 1.606.444.741.097 1.445-.037 1.036-.197 1.523-.767.487-.577.328-1.41-.144-.758-.62-1.08-.468-.325-1.491-.355l-.763-.03q-1.469-.05-2.228-.571-.758-.522-.965-1.605-.258-1.354.494-2.339.758-.993 2.267-1.28.583-.111 1.251-.099.668.006 1.429.135zm7.92 2.806q-.632-2.177-1.353-2.98-.714-.804-1.733-.508-1.013.293-1.192 1.357-.172 1.062.46 3.239.63 2.17 1.343 2.975.721.802 1.734.508 1.019-.296 1.193-1.35.18-1.064-.452-3.241zm1.396-.406q.749 2.581.297 4.09-.445 1.506-2.12 1.992-1.674.486-2.854-.541-1.181-1.028-1.934-3.622-.75-2.587-.306-4.094.452-1.509 2.12-1.993 1.674-.485 2.857.549 1.189 1.032 1.94 3.62zm-.682-5.215 1.64-.649 6.344 6.598-3.114-7.875 1.249-.494 3.783 9.566-1.64.649-6.344-6.597 3.115 7.874-1.25.494z" aria-label="OF TUCSON"/></svg>