<svg xmlns="http://www.w3.org/2000/svg" viewBox="0 0 2000 2000" xmlns:v="https://vecta.io/nano"><style><![CDATA[.B{fill:#0074de}]]></style><defs><path id="A" d="M601 0H1v700h700V0H601zm0 200v400H101V100h500v100z" class="B"/><path id="B" d="M400 200H200v300h300V200z" class="B"/></defs><svg width="57" height="57" x="686" y="173" viewBox="0 0 3.4 3.4"><circle cx="1.7" cy="1.7" r="1.7" class="B"/></svg><svg width="57" height="57" x="971" y="173" viewBox="0 0 3.4 3.4"><circle cx="1.7" cy="1.7" r="1.7" class="B"/></svg><svg width="57" height="57" x="1085" y="173" viewBox="0 0 3.4 3.4"><circle cx="1.7" cy="1.7" r="1.7" class="B"/></svg><svg width="57" height="57" x="1256" y="173" viewBox="0 0 3.4 3.4"><circle cx="1.7" cy="1.7" r="1.7" class="B"/></svg><svg width="57" height="57" x="1313" y="173" viewBox="0 0 3.4 3.4"><circle cx="1.7" cy="1.7" r="1.7" class="B"/></svg><svg width="57" height="57" x="629" y="230" viewBox="0 0 3.4 3.4"><circle cx="1.7" cy="1.7" r="1.7" class="B"/></svg><svg width="57" height="57" x="686" y="230" viewBox="0 0 3.4 3.4"><circle cx="1.7" cy="1.7" r="1.7" class="B"/></svg><svg width="57" height="57" x="800" y="230" viewBox="0 0 3.4 3.4"><circle cx="1.7" cy="1.7" r="1.7" class="B"/></svg><svg width="57" height="57" x="857" y="230" viewBox="0 0 3.4 3.4"><circle cx="1.7" cy="1.7" r="1.7" class="B"/></svg><svg width="57" height="57" x="971" y="230" viewBox="0 0 3.4 3.4"><circle cx="1.7" cy="1.7" r="1.7" class="B"/></svg><svg width="57" height="57" x="1085" y="230" viewBox="0 0 3.4 3.4"><circle cx="1.7" cy="1.7" r="1.7" class="B"/></svg><svg width="57" height="57" x="1142" y="230" viewBox="0 0 3.4 3.4"><circle cx="1.7" cy="1.7" r="1.7" class="B"/></svg><svg width="57" height="57" x="1199" y="230" viewBox="0 0 3.4 3.4"><circle cx="1.7" cy="1.7" r="1.7" class="B"/></svg><svg width="57" height="57" x="1256" y="230" viewBox="0 0 3.4 3.4"><circle cx="1.7" cy="1.7" r="1.7" class="B"/></svg><svg width="57" height="57" x="686" y="287" viewBox="0 0 3.4 3.4"><circle cx="1.7" cy="1.7" r="1.7" class="B"/></svg><svg width="57" height="57" x="743" y="287" viewBox="0 0 3.4 3.4"><circle cx="1.7" cy="1.7" r="1.7" class="B"/></svg><svg width="57" height="57" x="800" y="287" viewBox="0 0 3.4 3.4"><circle cx="1.7" cy="1.7" r="1.7" class="B"/></svg><svg width="57" height="57" x="971" y="287" viewBox="0 0 3.4 3.4"><circle cx="1.7" cy="1.7" r="1.7" class="B"/></svg><svg width="57" height="57" x="1028" y="287" viewBox="0 0 3.4 3.4"><circle cx="1.7" cy="1.7" r="1.7" class="B"/></svg><svg width="57" height="57" x="1085" y="287" viewBox="0 0 3.4 3.4"><circle cx="1.7" cy="1.7" r="1.7" class="B"/></svg><svg width="57" height="57" x="1142" y="287" viewBox="0 0 3.4 3.4"><circle cx="1.7" cy="1.7" r="1.7" class="B"/></svg><svg width="57" height="57" x="1199" y="287" viewBox="0 0 3.4 3.4"><circle cx="1.7" cy="1.7" r="1.7" class="B"/></svg><svg width="57" height="57" x="1256" y="287" viewBox="0 0 3.4 3.4"><circle cx="1.7" cy="1.7" r="1.7" class="B"/></svg><svg width="57" height="57" x="1313" y="287" viewBox="0 0 3.4 3.4"><circle cx="1.7" cy="1.7" r="1.7" class="B"/></svg><svg width="57" height="57" x="629" y="344" viewBox="0 0 3.4 3.4"><circle cx="1.7" cy="1.7" r="1.7" class="B"/></svg><svg width="57" height="57" x="686" y="344" viewBox="0 0 3.4 3.4"><circle cx="1.7" cy="1.7" r="1.7" class="B"/></svg><svg width="57" height="57" x="800" y="344" viewBox="0 0 3.4 3.4"><circle cx="1.7" cy="1.7" r="1.7" class="B"/></svg><svg width="57" height="57" x="971" y="344" viewBox="0 0 3.4 3.4"><circle cx="1.7" cy="1.7" r="1.7" class="B"/></svg><svg width="57" height="57" x="1028" y="344" viewBox="0 0 3.4 3.4"><circle cx="1.7" cy="1.7" r="1.7" class="B"/></svg><svg width="57" height="57" x="1142" y="344" viewBox="0 0 3.4 3.4"><circle cx="1.7" cy="1.7" r="1.7" class="B"/></svg><svg width="57" height="57" x="1313" y="344" viewBox="0 0 3.4 3.4"><circle cx="1.7" cy="1.7" r="1.7" class="B"/></svg><svg width="57" height="57" x="743" y="401" viewBox="0 0 3.4 3.4"><circle cx="1.7" cy="1.7" r="1.7" class="B"/></svg><svg width="57" height="57" x="857" y="401" viewBox="0 0 3.4 3.4"><circle cx="1.7" cy="1.7" r="1.7" class="B"/></svg><svg width="57" height="57" x="1085" y="401" viewBox="0 0 3.4 3.4"><circle cx="1.7" cy="1.7" r="1.7" class="B"/></svg><svg width="57" height="57" x="1199" y="401" viewBox="0 0 3.4 3.4"><circle cx="1.7" cy="1.7" r="1.7" class="B"/></svg><svg width="57" height="57" x="1313" y="401" viewBox="0 0 3.4 3.4"><circle cx="1.7" cy="1.7" r="1.7" class="B"/></svg><svg width="57" height="57" x="629" y="458" viewBox="0 0 3.4 3.4"><circle cx="1.7" cy="1.7" r="1.7" class="B"/></svg><svg width="57" height="57" x="743" y="458" viewBox="0 0 3.4 3.4"><circle cx="1.7" cy="1.7" r="1.7" class="B"/></svg><svg width="57" height="57" x="914" y="458" viewBox="0 0 3.4 3.4"><circle cx="1.7" cy="1.7" r="1.7" class="B"/></svg><svg width="57" height="57" x="971" y="458" viewBox="0 0 3.4 3.4"><circle cx="1.7" cy="1.7" r="1.7" class="B"/></svg><svg width="57" height="57" x="1028" y="458" viewBox="0 0 3.4 3.4"><circle cx="1.7" cy="1.7" r="1.7" class="B"/></svg><svg width="57" height="57" x="1142" y="458" viewBox="0 0 3.4 3.4"><circle cx="1.7" cy="1.7" r="1.7" class="B"/></svg><svg width="57" height="57" x="1256" y="458" viewBox="0 0 3.4 3.4"><circle cx="1.7" cy="1.7" r="1.7" class="B"/></svg><svg width="57" height="57" x="629" y="515" viewBox="0 0 3.4 3.4"><circle cx="1.7" cy="1.7" r="1.7" class="B"/></svg><svg width="57" height="57" x="743" y="515" viewBox="0 0 3.4 3.4"><circle cx="1.7" cy="1.7" r="1.7" class="B"/></svg><svg width="57" height="57" x="857" y="515" viewBox="0 0 3.4 3.4"><circle cx="1.7" cy="1.7" r="1.7" class="B"/></svg><svg width="57" height="57" x="971" y="515" viewBox="0 0 3.4 3.4"><circle cx="1.7" cy="1.7" r="1.7" class="B"/></svg><svg width="57" height="57" x="1085" y="515" viewBox="0 0 3.4 3.4"><circle cx="1.7" cy="1.7" r="1.7" class="B"/></svg><svg width="57" height="57" x="1199" y="515" viewBox="0 0 3.4 3.4"><circle cx="1.7" cy="1.7" r="1.7" class="B"/></svg><svg width="57" height="57" x="1313" y="515" viewBox="0 0 3.4 3.4"><circle cx="1.7" cy="1.7" r="1.7" class="B"/></svg><svg width="57" height="57" x="857" y="572" viewBox="0 0 3.4 3.4"><circle cx="1.7" cy="1.7" r="1.7" class="B"/></svg><svg width="57" height="57" x="971" y="572" viewBox="0 0 3.4 3.4"><circle cx="1.7" cy="1.7" r="1.7" class="B"/></svg><svg width="57" height="57" x="1085" y="572" viewBox="0 0 3.4 3.4"><circle cx="1.7" cy="1.7" r="1.7" class="B"/></svg><svg width="57" height="57" x="1199" y="572" viewBox="0 0 3.4 3.4"><circle cx="1.7" cy="1.7" r="1.7" class="B"/></svg><svg width="57" height="57" x="1256" y="572" viewBox="0 0 3.4 3.4"><circle cx="1.7" cy="1.7" r="1.7" class="B"/></svg><svg width="57" height="57" x="1313" y="572" viewBox="0 0 3.4 3.4"><circle cx="1.7" cy="1.7" r="1.7" class="B"/></svg><svg width="57" height="57" x="173" y="629" viewBox="0 0 3.4 3.4"><circle cx="1.7" cy="1.7" r="1.7" class="B"/></svg><svg width="57" height="57" x="230" y="629" viewBox="0 0 3.4 3.4"><circle cx="1.7" cy="1.7" r="1.7" class="B"/></svg><svg width="57" height="57" x="287" y="629" viewBox="0 0 3.4 3.4"><circle cx="1.7" cy="1.7" r="1.7" class="B"/></svg><svg width="57" height="57" x="344" y="629" viewBox="0 0 3.4 3.4"><circle cx="1.7" cy="1.7" r="1.7" class="B"/></svg><svg width="57" height="57" x="401" y="629" viewBox="0 0 3.4 3.4"><circle cx="1.7" cy="1.7" r="1.7" class="B"/></svg><svg width="57" height="57" x="515" y="629" viewBox="0 0 3.4 3.4"><circle cx="1.7" cy="1.7" r="1.7" class="B"/></svg><svg width="57" height="57" x="572" y="629" viewBox="0 0 3.4 3.4"><circle cx="1.7" cy="1.7" r="1.7" class="B"/></svg><svg width="57" height="57" x="629" y="629" viewBox="0 0 3.4 3.4"><circle cx="1.7" cy="1.7" r="1.7" class="B"/></svg><svg width="57" height="57" x="686" y="629" viewBox="0 0 3.4 3.4"><circle cx="1.7" cy="1.7" r="1.7" class="B"/></svg><svg width="57" height="57" x="743" y="629" viewBox="0 0 3.4 3.4"><circle cx="1.7" cy="1.7" r="1.7" class="B"/></svg><svg width="57" height="57" x="857" y="629" viewBox="0 0 3.4 3.4"><circle cx="1.7" cy="1.7" r="1.7" class="B"/></svg><svg width="57" height="57" x="971" y="629" viewBox="0 0 3.4 3.4"><circle cx="1.7" cy="1.7" r="1.7" class="B"/></svg><svg width="57" height="57" x="1028" y="629" viewBox="0 0 3.4 3.4"><circle cx="1.7" cy="1.7" r="1.7" class="B"/></svg><svg width="57" height="57" x="1085" y="629" viewBox="0 0 3.4 3.4"><circle cx="1.7" cy="1.7" r="1.7" class="B"/></svg><svg width="57" height="57" x="1142" y="629" viewBox="0 0 3.4 3.4"><circle cx="1.7" cy="1.7" r="1.7" class="B"/></svg><svg width="57" height="57" x="1199" y="629" viewBox="0 0 3.4 3.4"><circle cx="1.7" cy="1.7" r="1.7" class="B"/></svg><svg width="57" height="57" x="1370" y="629" viewBox="0 0 3.4 3.4"><circle cx="1.7" cy="1.7" r="1.7" class="B"/></svg><svg width="57" height="57" x="1484" y="629" viewBox="0 0 3.4 3.4"><circle cx="1.7" cy="1.7" r="1.7" class="B"/></svg><svg width="57" height="57" x="1598" y="629" viewBox="0 0 3.4 3.4"><circle cx="1.7" cy="1.7" r="1.7" class="B"/></svg><svg width="57" height="57" x="1712" y="629" viewBox="0 0 3.4 3.4"><circle cx="1.7" cy="1.7" r="1.7" class="B"/></svg><svg width="57" height="57" x="173" y="686" viewBox="0 0 3.4 3.4"><circle cx="1.7" cy="1.7" r="1.7" class="B"/></svg><svg width="57" height="57" x="287" y="686" viewBox="0 0 3.4 3.4"><circle cx="1.7" cy="1.7" r="1.7" class="B"/></svg><svg width="57" height="57" x="344" y="686" viewBox="0 0 3.4 3.4"><circle cx="1.7" cy="1.7" r="1.7" class="B"/></svg><svg width="57" height="57" x="401" y="686" viewBox="0 0 3.4 3.4"><circle cx="1.7" cy="1.7" r="1.7" class="B"/></svg><svg width="57" height="57" x="458" y="686" viewBox="0 0 3.4 3.4"><circle cx="1.7" cy="1.7" r="1.7" class="B"/></svg><svg width="57" height="57" x="686" y="686" viewBox="0 0 3.4 3.4"><circle cx="1.7" cy="1.7" r="1.7" class="B"/></svg><svg width="57" height="57" x="971" y="686" viewBox="0 0 3.4 3.4"><circle cx="1.7" cy="1.7" r="1.7" class="B"/></svg><svg width="57" height="57" x="1085" y="686" viewBox="0 0 3.4 3.4"><circle cx="1.7" cy="1.7" r="1.7" class="B"/></svg><svg width="57" height="57" x="1256" y="686" viewBox="0 0 3.4 3.4"><circle cx="1.7" cy="1.7" r="1.7" class="B"/></svg><svg width="57" height="57" x="1313" y="686" viewBox="0 0 3.4 3.4"><circle cx="1.7" cy="1.7" r="1.7" class="B"/></svg><svg width="57" height="57" x="1427" y="686" viewBox="0 0 3.4 3.4"><circle cx="1.7" cy="1.7" r="1.7" class="B"/></svg><svg width="57" height="57" x="1541" y="686" viewBox="0 0 3.4 3.4"><circle cx="1.7" cy="1.7" r="1.7" class="B"/></svg><svg width="57" height="57" x="1598" y="686" viewBox="0 0 3.4 3.4"><circle cx="1.7" cy="1.7" r="1.7" class="B"/></svg><svg width="57" height="57" x="1712" y="686" viewBox="0 0 3.4 3.4"><circle cx="1.7" cy="1.7" r="1.7" class="B"/></svg><svg width="57" height="57" x="173" y="743" viewBox="0 0 3.4 3.4"><circle cx="1.7" cy="1.7" r="1.7" class="B"/></svg><svg width="57" height="57" x="344" y="743" viewBox="0 0 3.4 3.4"><circle cx="1.7" cy="1.7" r="1.7" class="B"/></svg><svg width="57" height="57" x="458" y="743" viewBox="0 0 3.4 3.4"><circle cx="1.7" cy="1.7" r="1.7" class="B"/></svg><svg width="57" height="57" x="515" y="743" viewBox="0 0 3.4 3.4"><circle cx="1.7" cy="1.7" r="1.7" class="B"/></svg><svg width="57" height="57" x="572" y="743" viewBox="0 0 3.4 3.4"><circle cx="1.7" cy="1.7" r="1.7" class="B"/></svg><svg width="57" height="57" x="686" y="743" viewBox="0 0 3.4 3.4"><circle cx="1.7" cy="1.7" r="1.7" class="B"/></svg><svg width="57" height="57" x="800" y="743" viewBox="0 0 3.4 3.4"><circle cx="1.7" cy="1.7" r="1.7" class="B"/></svg><svg width="57" height="57" x="857" y="743" viewBox="0 0 3.4 3.4"><circle cx="1.7" cy="1.7" r="1.7" class="B"/></svg><svg width="57" height="57" x="914" y="743" viewBox="0 0 3.4 3.4"><circle cx="1.7" cy="1.7" r="1.7" class="B"/></svg><svg width="57" height="57" x="971" y="743" viewBox="0 0 3.4 3.4"><circle cx="1.7" cy="1.7" r="1.7" class="B"/></svg><svg width="57" height="57" x="1142" y="743" viewBox="0 0 3.4 3.4"><circle cx="1.7" cy="1.7" r="1.7" class="B"/></svg><svg width="57" height="57" x="1256" y="743" viewBox="0 0 3.4 3.4"><circle cx="1.7" cy="1.7" r="1.7" class="B"/></svg><svg width="57" height="57" x="1598" y="743" viewBox="0 0 3.4 3.4"><circle cx="1.7" cy="1.7" r="1.7" class="B"/></svg><svg width="57" height="57" x="1655" y="743" viewBox="0 0 3.4 3.4"><circle cx="1.7" cy="1.7" r="1.7" class="B"/></svg><svg width="57" height="57" x="230" y="800" viewBox="0 0 3.4 3.4"><circle cx="1.7" cy="1.7" r="1.7" class="B"/></svg><svg width="57" height="57" x="401" y="800" viewBox="0 0 3.4 3.4"><circle cx="1.7" cy="1.7" r="1.7" class="B"/></svg><svg width="57" height="57" x="458" y="800" viewBox="0 0 3.4 3.4"><circle cx="1.7" cy="1.7" r="1.7" class="B"/></svg><svg width="57" height="57" x="629" y="800" viewBox="0 0 3.4 3.4"><circle cx="1.7" cy="1.7" r="1.7" class="B"/></svg><svg width="57" height="57" x="686" y="800" viewBox="0 0 3.4 3.4"><circle cx="1.7" cy="1.7" r="1.7" class="B"/></svg><svg width="57" height="57" x="743" y="800" viewBox="0 0 3.4 3.4"><circle cx="1.7" cy="1.7" r="1.7" class="B"/></svg><svg width="57" height="57" x="800" y="800" viewBox="0 0 3.4 3.4"><circle cx="1.7" cy="1.7" r="1.7" class="B"/></svg><svg width="57" height="57" x="1085" y="800" viewBox="0 0 3.4 3.4"><circle cx="1.7" cy="1.7" r="1.7" class="B"/></svg><svg width="57" height="57" x="1142" y="800" viewBox="0 0 3.4 3.4"><circle cx="1.7" cy="1.7" r="1.7" class="B"/></svg><svg width="57" height="57" x="1199" y="800" viewBox="0 0 3.4 3.4"><circle cx="1.7" cy="1.7" r="1.7" class="B"/></svg><svg width="57" height="57" x="1256" y="800" viewBox="0 0 3.4 3.4"><circle cx="1.7" cy="1.7" r="1.7" class="B"/></svg><svg width="57" height="57" x="1313" y="800" viewBox="0 0 3.4 3.4"><circle cx="1.7" cy="1.7" r="1.7" class="B"/></svg><svg width="57" height="57" x="1370" y="800" viewBox="0 0 3.4 3.4"><circle cx="1.7" cy="1.7" r="1.7" class="B"/></svg><svg width="57" height="57" x="1427" y="800" viewBox="0 0 3.4 3.4"><circle cx="1.7" cy="1.7" r="1.7" class="B"/></svg><svg width="57" height="57" x="1484" y="800" viewBox="0 0 3.4 3.4"><circle cx="1.7" cy="1.7" r="1.7" class="B"/></svg><svg width="57" height="57" x="1541" y="800" viewBox="0 0 3.4 3.4"><circle cx="1.7" cy="1.7" r="1.7" class="B"/></svg><svg width="57" height="57" x="1598" y="800" viewBox="0 0 3.4 3.4"><circle cx="1.7" cy="1.7" r="1.7" class="B"/></svg><svg width="57" height="57" x="1769" y="800" viewBox="0 0 3.4 3.4"><circle cx="1.7" cy="1.7" r="1.7" class="B"/></svg><svg width="57" height="57" x="173" y="857" viewBox="0 0 3.4 3.4"><circle cx="1.7" cy="1.7" r="1.7" class="B"/></svg><svg width="57" height="57" x="230" y="857" viewBox="0 0 3.4 3.4"><circle cx="1.7" cy="1.7" r="1.7" class="B"/></svg><svg width="57" height="57" x="344" y="857" viewBox="0 0 3.4 3.4"><circle cx="1.7" cy="1.7" r="1.7" class="B"/></svg><svg width="57" height="57" x="515" y="857" viewBox="0 0 3.4 3.4"><circle cx="1.7" cy="1.7" r="1.7" class="B"/></svg><svg width="57" height="57" x="686" y="857" viewBox="0 0 3.4 3.4"><circle cx="1.7" cy="1.7" r="1.7" class="B"/></svg><svg width="57" height="57" x="800" y="857" viewBox="0 0 3.4 3.4"><circle cx="1.7" cy="1.7" r="1.7" class="B"/></svg><svg width="57" height="57" x="914" y="857" viewBox="0 0 3.4 3.4"><circle cx="1.7" cy="1.7" r="1.7" class="B"/></svg><svg width="57" height="57" x="1028" y="857" viewBox="0 0 3.4 3.4"><circle cx="1.7" cy="1.7" r="1.7" class="B"/></svg><svg width="57" height="57" x="1085" y="857" viewBox="0 0 3.4 3.4"><circle cx="1.7" cy="1.7" r="1.7" class="B"/></svg><svg width="57" height="57" x="1142" y="857" viewBox="0 0 3.4 3.4"><circle cx="1.7" cy="1.7" r="1.7" class="B"/></svg><svg width="57" height="57" x="1313" y="857" viewBox="0 0 3.4 3.4"><circle cx="1.7" cy="1.7" r="1.7" class="B"/></svg><svg width="57" height="57" x="1427" y="857" viewBox="0 0 3.4 3.4"><circle cx="1.7" cy="1.7" r="1.7" class="B"/></svg><svg width="57" height="57" x="1484" y="857" viewBox="0 0 3.4 3.4"><circle cx="1.7" cy="1.7" r="1.7" class="B"/></svg><svg width="57" height="57" x="173" y="914" viewBox="0 0 3.4 3.4"><circle cx="1.7" cy="1.7" r="1.7" class="B"/></svg><svg width="57" height="57" x="344" y="914" viewBox="0 0 3.4 3.4"><circle cx="1.7" cy="1.7" r="1.7" class="B"/></svg><svg width="57" height="57" x="401" y="914" viewBox="0 0 3.4 3.4"><circle cx="1.7" cy="1.7" r="1.7" class="B"/></svg><svg width="57" height="57" x="458" y="914" viewBox="0 0 3.4 3.4"><circle cx="1.7" cy="1.7" r="1.7" class="B"/></svg><svg width="57" height="57" x="572" y="914" viewBox="0 0 3.4 3.4"><circle cx="1.7" cy="1.7" r="1.7" class="B"/></svg><svg width="57" height="57" x="743" y="914" viewBox="0 0 3.4 3.4"><circle cx="1.7" cy="1.7" r="1.7" class="B"/></svg><svg width="57" height="57" x="857" y="914" viewBox="0 0 3.4 3.4"><circle cx="1.7" cy="1.7" r="1.7" class="B"/></svg><svg width="57" height="57" x="971" y="914" viewBox="0 0 3.4 3.4"><circle cx="1.7" cy="1.7" r="1.7" class="B"/></svg><svg width="57" height="57" x="1085" y="914" viewBox="0 0 3.4 3.4"><circle cx="1.7" cy="1.7" r="1.7" class="B"/></svg><svg width="57" height="57" x="1313" y="914" viewBox="0 0 3.4 3.4"><circle cx="1.7" cy="1.7" r="1.7" class="B"/></svg><svg width="57" height="57" x="1427" y="914" viewBox="0 0 3.4 3.4"><circle cx="1.7" cy="1.7" r="1.7" class="B"/></svg><svg width="57" height="57" x="1541" y="914" viewBox="0 0 3.4 3.4"><circle cx="1.7" cy="1.7" r="1.7" class="B"/></svg><svg width="57" height="57" x="1598" y="914" viewBox="0 0 3.4 3.4"><circle cx="1.7" cy="1.7" r="1.7" class="B"/></svg><svg width="57" height="57" x="1712" y="914" viewBox="0 0 3.4 3.4"><circle cx="1.7" cy="1.7" r="1.7" class="B"/></svg><svg width="57" height="57" x="287" y="971" viewBox="0 0 3.4 3.4"><circle cx="1.7" cy="1.7" r="1.7" class="B"/></svg><svg width="57" height="57" x="344" y="971" viewBox="0 0 3.4 3.4"><circle cx="1.7" cy="1.7" r="1.7" class="B"/></svg><svg width="57" height="57" x="401" y="971" viewBox="0 0 3.4 3.4"><circle cx="1.7" cy="1.7" r="1.7" class="B"/></svg><svg width="57" height="57" x="458" y="971" viewBox="0 0 3.4 3.4"><circle cx="1.7" cy="1.7" r="1.7" class="B"/></svg><svg width="57" height="57" x="515" y="971" viewBox="0 0 3.4 3.4"><circle cx="1.7" cy="1.7" r="1.7" class="B"/></svg><svg width="57" height="57" x="572" y="971" viewBox="0 0 3.4 3.4"><circle cx="1.7" cy="1.7" r="1.7" class="B"/></svg><svg width="57" height="57" x="629" y="971" viewBox="0 0 3.4 3.4"><circle cx="1.7" cy="1.7" r="1.7" class="B"/></svg><svg width="57" height="57" x="686" y="971" viewBox="0 0 3.4 3.4"><circle cx="1.7" cy="1.7" r="1.7" class="B"/></svg><svg width="57" height="57" x="914" y="971" viewBox="0 0 3.4 3.4"><circle cx="1.7" cy="1.7" r="1.7" class="B"/></svg><svg width="57" height="57" x="971" y="971" viewBox="0 0 3.4 3.4"><circle cx="1.7" cy="1.7" r="1.7" class="B"/></svg><svg width="57" height="57" x="1085" y="971" viewBox="0 0 3.4 3.4"><circle cx="1.7" cy="1.7" r="1.7" class="B"/></svg><svg width="57" height="57" x="1142" y="971" viewBox="0 0 3.4 3.4"><circle cx="1.7" cy="1.7" r="1.7" class="B"/></svg><svg width="57" height="57" x="1598" y="971" viewBox="0 0 3.4 3.4"><circle cx="1.7" cy="1.7" r="1.7" class="B"/></svg><svg width="57" height="57" x="1655" y="971" viewBox="0 0 3.4 3.4"><circle cx="1.7" cy="1.7" r="1.7" class="B"/></svg><svg width="57" height="57" x="1712" y="971" viewBox="0 0 3.4 3.4"><circle cx="1.7" cy="1.7" r="1.7" class="B"/></svg><svg width="57" height="57" x="1769" y="971" viewBox="0 0 3.4 3.4"><circle cx="1.7" cy="1.7" r="1.7" class="B"/></svg><svg width="57" height="57" x="173" y="1028" viewBox="0 0 3.4 3.4"><circle cx="1.7" cy="1.7" r="1.7" class="B"/></svg><svg width="57" height="57" x="287" y="1028" viewBox="0 0 3.4 3.4"><circle cx="1.7" cy="1.7" r="1.7" class="B"/></svg><svg width="57" height="57" x="458" y="1028" viewBox="0 0 3.4 3.4"><circle cx="1.7" cy="1.7" r="1.7" class="B"/></svg><svg width="57" height="57" x="629" y="1028" viewBox="0 0 3.4 3.4"><circle cx="1.7" cy="1.7" r="1.7" class="B"/></svg><svg width="57" height="57" x="857" y="1028" viewBox="0 0 3.4 3.4"><circle cx="1.7" cy="1.7" r="1.7" class="B"/></svg><svg width="57" height="57" x="971" y="1028" viewBox="0 0 3.4 3.4"><circle cx="1.7" cy="1.7" r="1.7" class="B"/></svg><svg width="57" height="57" x="1028" y="1028" viewBox="0 0 3.4 3.4"><circle cx="1.7" cy="1.7" r="1.7" class="B"/></svg><svg width="57" height="57" x="1085" y="1028" viewBox="0 0 3.4 3.4"><circle cx="1.7" cy="1.7" r="1.7" class="B"/></svg><svg width="57" height="57" x="1142" y="1028" viewBox="0 0 3.4 3.4"><circle cx="1.7" cy="1.7" r="1.7" class="B"/></svg><svg width="57" height="57" x="1199" y="1028" viewBox="0 0 3.4 3.4"><circle cx="1.7" cy="1.7" r="1.7" class="B"/></svg><svg width="57" height="57" x="1256" y="1028" viewBox="0 0 3.4 3.4"><circle cx="1.7" cy="1.7" r="1.7" class="B"/></svg><svg width="57" height="57" x="1313" y="1028" viewBox="0 0 3.4 3.4"><circle cx="1.7" cy="1.7" r="1.7" class="B"/></svg><svg width="57" height="57" x="1427" y="1028" viewBox="0 0 3.4 3.4"><circle cx="1.7" cy="1.7" r="1.7" class="B"/></svg><svg width="57" height="57" x="1484" y="1028" viewBox="0 0 3.4 3.4"><circle cx="1.7" cy="1.7" r="1.7" class="B"/></svg><svg width="57" height="57" x="1541" y="1028" viewBox="0 0 3.4 3.4"><circle cx="1.7" cy="1.7" r="1.7" class="B"/></svg><svg width="57" height="57" x="1712" y="1028" viewBox="0 0 3.4 3.4"><circle cx="1.7" cy="1.7" r="1.7" class="B"/></svg><svg width="57" height="57" x="1769" y="1028" viewBox="0 0 3.4 3.4"><circle cx="1.7" cy="1.7" r="1.7" class="B"/></svg><svg width="57" height="57" x="287" y="1085" viewBox="0 0 3.4 3.4"><circle cx="1.7" cy="1.7" r="1.7" class="B"/></svg><svg width="57" height="57" x="344" y="1085" viewBox="0 0 3.4 3.4"><circle cx="1.7" cy="1.7" r="1.7" class="B"/></svg><svg width="57" height="57" x="401" y="1085" viewBox="0 0 3.4 3.4"><circle cx="1.7" cy="1.7" r="1.7" class="B"/></svg><svg width="57" height="57" x="515" y="1085" viewBox="0 0 3.4 3.4"><circle cx="1.7" cy="1.7" r="1.7" class="B"/></svg><svg width="57" height="57" x="572" y="1085" viewBox="0 0 3.4 3.4"><circle cx="1.7" cy="1.7" r="1.7" class="B"/></svg><svg width="57" height="57" x="743" y="1085" viewBox="0 0 3.4 3.4"><circle cx="1.7" cy="1.7" r="1.7" class="B"/></svg><svg width="57" height="57" x="857" y="1085" viewBox="0 0 3.4 3.4"><circle cx="1.7" cy="1.7" r="1.7" class="B"/></svg><svg width="57" height="57" x="914" y="1085" viewBox="0 0 3.4 3.4"><circle cx="1.7" cy="1.7" r="1.7" class="B"/></svg><svg width="57" height="57" x="1028" y="1085" viewBox="0 0 3.4 3.4"><circle cx="1.7" cy="1.7" r="1.7" class="B"/></svg><svg width="57" height="57" x="1085" y="1085" viewBox="0 0 3.4 3.4"><circle cx="1.7" cy="1.7" r="1.7" class="B"/></svg><svg width="57" height="57" x="1484" y="1085" viewBox="0 0 3.4 3.4"><circle cx="1.7" cy="1.7" r="1.7" class="B"/></svg><svg width="57" height="57" x="1541" y="1085" viewBox="0 0 3.4 3.4"><circle cx="1.7" cy="1.7" r="1.7" class="B"/></svg><svg width="57" height="57" x="173" y="1142" viewBox="0 0 3.4 3.4"><circle cx="1.7" cy="1.7" r="1.7" class="B"/></svg><svg width="57" height="57" x="230" y="1142" viewBox="0 0 3.4 3.4"><circle cx="1.7" cy="1.7" r="1.7" class="B"/></svg><svg width="57" height="57" x="287" y="1142" viewBox="0 0 3.4 3.4"><circle cx="1.7" cy="1.7" r="1.7" class="B"/></svg><svg width="57" height="57" x="401" y="1142" viewBox="0 0 3.4 3.4"><circle cx="1.7" cy="1.7" r="1.7" class="B"/></svg><svg width="57" height="57" x="629" y="1142" viewBox="0 0 3.4 3.4"><circle cx="1.7" cy="1.7" r="1.7" class="B"/></svg><svg width="57" height="57" x="971" y="1142" viewBox="0 0 3.4 3.4"><circle cx="1.7" cy="1.7" r="1.7" class="B"/></svg><svg width="57" height="57" x="1256" y="1142" viewBox="0 0 3.4 3.4"><circle cx="1.7" cy="1.7" r="1.7" class="B"/></svg><svg width="57" height="57" x="1313" y="1142" viewBox="0 0 3.4 3.4"><circle cx="1.7" cy="1.7" r="1.7" class="B"/></svg><svg width="57" height="57" x="1541" y="1142" viewBox="0 0 3.4 3.4"><circle cx="1.7" cy="1.7" r="1.7" class="B"/></svg><svg width="57" height="57" x="1598" y="1142" viewBox="0 0 3.4 3.4"><circle cx="1.7" cy="1.7" r="1.7" class="B"/></svg><svg width="57" height="57" x="173" y="1199" viewBox="0 0 3.4 3.4"><circle cx="1.7" cy="1.7" r="1.7" class="B"/></svg><svg width="57" height="57" x="287" y="1199" viewBox="0 0 3.4 3.4"><circle cx="1.7" cy="1.7" r="1.7" class="B"/></svg><svg width="57" height="57" x="344" y="1199" viewBox="0 0 3.4 3.4"><circle cx="1.7" cy="1.7" r="1.7" class="B"/></svg><svg width="57" height="57" x="401" y="1199" viewBox="0 0 3.4 3.4"><circle cx="1.7" cy="1.7" r="1.7" class="B"/></svg><svg width="57" height="57" x="515" y="1199" viewBox="0 0 3.4 3.4"><circle cx="1.7" cy="1.7" r="1.7" class="B"/></svg><svg width="57" height="57" x="572" y="1199" viewBox="0 0 3.4 3.4"><circle cx="1.7" cy="1.7" r="1.7" class="B"/></svg><svg width="57" height="57" x="629" y="1199" viewBox="0 0 3.4 3.4"><circle cx="1.7" cy="1.7" r="1.7" class="B"/></svg><svg width="57" height="57" x="800" y="1199" viewBox="0 0 3.4 3.4"><circle cx="1.7" cy="1.7" r="1.7" class="B"/></svg><svg width="57" height="57" x="857" y="1199" viewBox="0 0 3.4 3.4"><circle cx="1.7" cy="1.7" r="1.7" class="B"/></svg><svg width="57" height="57" x="914" y="1199" viewBox="0 0 3.4 3.4"><circle cx="1.7" cy="1.7" r="1.7" class="B"/></svg><svg width="57" height="57" x="971" y="1199" viewBox="0 0 3.4 3.4"><circle cx="1.7" cy="1.7" r="1.7" class="B"/></svg><svg width="57" height="57" x="1028" y="1199" viewBox="0 0 3.4 3.4"><circle cx="1.7" cy="1.7" r="1.7" class="B"/></svg><svg width="57" height="57" x="1085" y="1199" viewBox="0 0 3.4 3.4"><circle cx="1.7" cy="1.7" r="1.7" class="B"/></svg><svg width="57" height="57" x="1142" y="1199" viewBox="0 0 3.4 3.4"><circle cx="1.7" cy="1.7" r="1.7" class="B"/></svg><svg width="57" height="57" x="1199" y="1199" viewBox="0 0 3.4 3.4"><circle cx="1.7" cy="1.7" r="1.7" class="B"/></svg><svg width="57" height="57" x="1313" y="1199" viewBox="0 0 3.4 3.4"><circle cx="1.7" cy="1.7" r="1.7" class="B"/></svg><svg width="57" height="57" x="1598" y="1199" viewBox="0 0 3.4 3.4"><circle cx="1.7" cy="1.7" r="1.7" class="B"/></svg><svg width="57" height="57" x="1655" y="1199" viewBox="0 0 3.4 3.4"><circle cx="1.7" cy="1.7" r="1.7" class="B"/></svg><svg width="57" height="57" x="1712" y="1199" viewBox="0 0 3.4 3.4"><circle cx="1.7" cy="1.7" r="1.7" class="B"/></svg><svg width="57" height="57" x="1769" y="1199" viewBox="0 0 3.4 3.4"><circle cx="1.7" cy="1.7" r="1.7" class="B"/></svg><svg width="57" height="57" x="173" y="1256" viewBox="0 0 3.4 3.4"><circle cx="1.7" cy="1.7" r="1.7" class="B"/></svg><svg width="57" height="57" x="287" y="1256" viewBox="0 0 3.4 3.4"><circle cx="1.7" cy="1.7" r="1.7" class="B"/></svg><svg width="57" height="57" x="401" y="1256" viewBox="0 0 3.4 3.4"><circle cx="1.7" cy="1.7" r="1.7" class="B"/></svg><svg width="57" height="57" x="686" y="1256" viewBox="0 0 3.4 3.4"><circle cx="1.7" cy="1.7" r="1.7" class="B"/></svg><svg width="57" height="57" x="743" y="1256" viewBox="0 0 3.4 3.4"><circle cx="1.7" cy="1.7" r="1.7" class="B"/></svg><svg width="57" height="57" x="800" y="1256" viewBox="0 0 3.4 3.4"><circle cx="1.7" cy="1.7" r="1.7" class="B"/></svg><svg width="57" height="57" x="914" y="1256" viewBox="0 0 3.4 3.4"><circle cx="1.7" cy="1.7" r="1.7" class="B"/></svg><svg width="57" height="57" x="1085" y="1256" viewBox="0 0 3.4 3.4"><circle cx="1.7" cy="1.7" r="1.7" class="B"/></svg><svg width="57" height="57" x="1142" y="1256" viewBox="0 0 3.4 3.4"><circle cx="1.7" cy="1.7" r="1.7" class="B"/></svg><svg width="57" height="57" x="1199" y="1256" viewBox="0 0 3.4 3.4"><circle cx="1.7" cy="1.7" r="1.7" class="B"/></svg><svg width="57" height="57" x="1256" y="1256" viewBox="0 0 3.4 3.4"><circle cx="1.7" cy="1.7" r="1.7" class="B"/></svg><svg width="57" height="57" x="1313" y="1256" viewBox="0 0 3.4 3.4"><circle cx="1.7" cy="1.7" r="1.7" class="B"/></svg><svg width="57" height="57" x="1370" y="1256" viewBox="0 0 3.4 3.4"><circle cx="1.7" cy="1.7" r="1.7" class="B"/></svg><svg width="57" height="57" x="1427" y="1256" viewBox="0 0 3.4 3.4"><circle cx="1.7" cy="1.7" r="1.7" class="B"/></svg><svg width="57" height="57" x="1484" y="1256" viewBox="0 0 3.4 3.4"><circle cx="1.7" cy="1.7" r="1.7" class="B"/></svg><svg width="57" height="57" x="1541" y="1256" viewBox="0 0 3.4 3.4"><circle cx="1.7" cy="1.7" r="1.7" class="B"/></svg><svg width="57" height="57" x="1712" y="1256" viewBox="0 0 3.4 3.4"><circle cx="1.7" cy="1.7" r="1.7" class="B"/></svg><svg width="57" height="57" x="1769" y="1256" viewBox="0 0 3.4 3.4"><circle cx="1.7" cy="1.7" r="1.7" class="B"/></svg><svg width="57" height="57" x="173" y="1313" viewBox="0 0 3.4 3.4"><circle cx="1.7" cy="1.7" r="1.7" class="B"/></svg><svg width="57" height="57" x="344" y="1313" viewBox="0 0 3.4 3.4"><circle cx="1.7" cy="1.7" r="1.7" class="B"/></svg><svg width="57" height="57" x="458" y="1313" viewBox="0 0 3.4 3.4"><circle cx="1.7" cy="1.7" r="1.7" class="B"/></svg><svg width="57" height="57" x="515" y="1313" viewBox="0 0 3.4 3.4"><circle cx="1.7" cy="1.7" r="1.7" class="B"/></svg><svg width="57" height="57" x="629" y="1313" viewBox="0 0 3.4 3.4"><circle cx="1.7" cy="1.7" r="1.7" class="B"/></svg><svg width="57" height="57" x="686" y="1313" viewBox="0 0 3.4 3.4"><circle cx="1.7" cy="1.7" r="1.7" class="B"/></svg><svg width="57" height="57" x="743" y="1313" viewBox="0 0 3.4 3.4"><circle cx="1.7" cy="1.7" r="1.7" class="B"/></svg><svg width="57" height="57" x="800" y="1313" viewBox="0 0 3.4 3.4"><circle cx="1.7" cy="1.7" r="1.7" class="B"/></svg><svg width="57" height="57" x="914" y="1313" viewBox="0 0 3.4 3.4"><circle cx="1.7" cy="1.7" r="1.7" class="B"/></svg><svg width="57" height="57" x="971" y="1313" viewBox="0 0 3.4 3.4"><circle cx="1.7" cy="1.7" r="1.7" class="B"/></svg><svg width="57" height="57" x="1028" y="1313" viewBox="0 0 3.4 3.4"><circle cx="1.7" cy="1.7" r="1.7" class="B"/></svg><svg width="57" height="57" x="1085" y="1313" viewBox="0 0 3.4 3.4"><circle cx="1.7" cy="1.7" r="1.7" class="B"/></svg><svg width="57" height="57" x="1142" y="1313" viewBox="0 0 3.4 3.4"><circle cx="1.7" cy="1.7" r="1.7" class="B"/></svg><svg width="57" height="57" x="1313" y="1313" viewBox="0 0 3.4 3.4"><circle cx="1.7" cy="1.7" r="1.7" class="B"/></svg><svg width="57" height="57" x="1370" y="1313" viewBox="0 0 3.4 3.4"><circle cx="1.7" cy="1.7" r="1.7" class="B"/></svg><svg width="57" height="57" x="1427" y="1313" viewBox="0 0 3.4 3.4"><circle cx="1.7" cy="1.7" r="1.7" class="B"/></svg><svg width="57" height="57" x="1484" y="1313" viewBox="0 0 3.4 3.4"><circle cx="1.7" cy="1.7" r="1.7" class="B"/></svg><svg width="57" height="57" x="1541" y="1313" viewBox="0 0 3.4 3.4"><circle cx="1.7" cy="1.7" r="1.7" class="B"/></svg><svg width="57" height="57" x="1598" y="1313" viewBox="0 0 3.4 3.4"><circle cx="1.7" cy="1.7" r="1.7" class="B"/></svg><svg width="57" height="57" x="1655" y="1313" viewBox="0 0 3.4 3.4"><circle cx="1.7" cy="1.7" r="1.7" class="B"/></svg><svg width="57" height="57" x="1712" y="1313" viewBox="0 0 3.4 3.4"><circle cx="1.7" cy="1.7" r="1.7" class="B"/></svg><svg width="57" height="57" x="629" y="1370" viewBox="0 0 3.4 3.4"><circle cx="1.7" cy="1.7" r="1.7" class="B"/></svg><svg width="57" height="57" x="686" y="1370" viewBox="0 0 3.4 3.4"><circle cx="1.7" cy="1.7" r="1.7" class="B"/></svg><svg width="57" height="57" x="857" y="1370" viewBox="0 0 3.4 3.4"><circle cx="1.7" cy="1.7" r="1.7" class="B"/></svg><svg width="57" height="57" x="971" y="1370" viewBox="0 0 3.4 3.4"><circle cx="1.7" cy="1.7" r="1.7" class="B"/></svg><svg width="57" height="57" x="1313" y="1370" viewBox="0 0 3.4 3.4"><circle cx="1.7" cy="1.7" r="1.7" class="B"/></svg><svg width="57" height="57" x="1541" y="1370" viewBox="0 0 3.4 3.4"><circle cx="1.7" cy="1.7" r="1.7" class="B"/></svg><svg width="57" height="57" x="1712" y="1370" viewBox="0 0 3.4 3.4"><circle cx="1.7" cy="1.7" r="1.7" class="B"/></svg><svg width="57" height="57" x="629" y="1427" viewBox="0 0 3.4 3.4"><circle cx="1.7" cy="1.7" r="1.7" class="B"/></svg><svg width="57" height="57" x="914" y="1427" viewBox="0 0 3.4 3.4"><circle cx="1.7" cy="1.7" r="1.7" class="B"/></svg><svg width="57" height="57" x="971" y="1427" viewBox="0 0 3.4 3.4"><circle cx="1.7" cy="1.7" r="1.7" class="B"/></svg><svg width="57" height="57" x="1142" y="1427" viewBox="0 0 3.4 3.4"><circle cx="1.7" cy="1.7" r="1.7" class="B"/></svg><svg width="57" height="57" x="1256" y="1427" viewBox="0 0 3.4 3.4"><circle cx="1.7" cy="1.7" r="1.7" class="B"/></svg><svg width="57" height="57" x="1313" y="1427" viewBox="0 0 3.4 3.4"><circle cx="1.7" cy="1.7" r="1.7" class="B"/></svg><svg width="57" height="57" x="1427" y="1427" viewBox="0 0 3.4 3.4"><circle cx="1.7" cy="1.7" r="1.7" class="B"/></svg><svg width="57" height="57" x="1541" y="1427" viewBox="0 0 3.4 3.4"><circle cx="1.7" cy="1.7" r="1.7" class="B"/></svg><svg width="57" height="57" x="1598" y="1427" viewBox="0 0 3.4 3.4"><circle cx="1.7" cy="1.7" r="1.7" class="B"/></svg><svg width="57" height="57" x="1655" y="1427" viewBox="0 0 3.4 3.4"><circle cx="1.7" cy="1.7" r="1.7" class="B"/></svg><svg width="57" height="57" x="743" y="1484" viewBox="0 0 3.4 3.4"><circle cx="1.7" cy="1.7" r="1.7" class="B"/></svg><svg width="57" height="57" x="857" y="1484" viewBox="0 0 3.4 3.4"><circle cx="1.7" cy="1.7" r="1.7" class="B"/></svg><svg width="57" height="57" x="914" y="1484" viewBox="0 0 3.4 3.4"><circle cx="1.7" cy="1.7" r="1.7" class="B"/></svg><svg width="57" height="57" x="1028" y="1484" viewBox="0 0 3.4 3.4"><circle cx="1.7" cy="1.7" r="1.7" class="B"/></svg><svg width="57" height="57" x="1085" y="1484" viewBox="0 0 3.4 3.4"><circle cx="1.7" cy="1.7" r="1.7" class="B"/></svg><svg width="57" height="57" x="1256" y="1484" viewBox="0 0 3.4 3.4"><circle cx="1.7" cy="1.7" r="1.7" class="B"/></svg><svg width="57" height="57" x="1313" y="1484" viewBox="0 0 3.4 3.4"><circle cx="1.7" cy="1.7" r="1.7" class="B"/></svg><svg width="57" height="57" x="1541" y="1484" viewBox="0 0 3.4 3.4"><circle cx="1.7" cy="1.7" r="1.7" class="B"/></svg><svg width="57" height="57" x="1655" y="1484" viewBox="0 0 3.4 3.4"><circle cx="1.7" cy="1.7" r="1.7" class="B"/></svg><svg width="57" height="57" x="1712" y="1484" viewBox="0 0 3.4 3.4"><circle cx="1.7" cy="1.7" r="1.7" class="B"/></svg><svg width="57" height="57" x="1769" y="1484" viewBox="0 0 3.4 3.4"><circle cx="1.7" cy="1.7" r="1.7" class="B"/></svg><svg width="57" height="57" x="629" y="1541" viewBox="0 0 3.4 3.4"><circle cx="1.7" cy="1.7" r="1.7" class="B"/></svg><svg width="57" height="57" x="686" y="1541" viewBox="0 0 3.4 3.4"><circle cx="1.7" cy="1.7" r="1.7" class="B"/></svg><svg width="57" height="57" x="743" y="1541" viewBox="0 0 3.4 3.4"><circle cx="1.7" cy="1.7" r="1.7" class="B"/></svg><svg width="57" height="57" x="857" y="1541" viewBox="0 0 3.4 3.4"><circle cx="1.7" cy="1.7" r="1.7" class="B"/></svg><svg width="57" height="57" x="914" y="1541" viewBox="0 0 3.4 3.4"><circle cx="1.7" cy="1.7" r="1.7" class="B"/></svg><svg width="57" height="57" x="971" y="1541" viewBox="0 0 3.4 3.4"><circle cx="1.7" cy="1.7" r="1.7" class="B"/></svg><svg width="57" height="57" x="1028" y="1541" viewBox="0 0 3.4 3.4"><circle cx="1.7" cy="1.7" r="1.7" class="B"/></svg><svg width="57" height="57" x="1256" y="1541" viewBox="0 0 3.4 3.4"><circle cx="1.7" cy="1.7" r="1.7" class="B"/></svg><svg width="57" height="57" x="1313" y="1541" viewBox="0 0 3.4 3.4"><circle cx="1.7" cy="1.7" r="1.7" class="B"/></svg><svg width="57" height="57" x="1370" y="1541" viewBox="0 0 3.4 3.4"><circle cx="1.7" cy="1.7" r="1.7" class="B"/></svg><svg width="57" height="57" x="1427" y="1541" viewBox="0 0 3.4 3.4"><circle cx="1.7" cy="1.7" r="1.7" class="B"/></svg><svg width="57" height="57" x="1484" y="1541" viewBox="0 0 3.4 3.4"><circle cx="1.7" cy="1.7" r="1.7" class="B"/></svg><svg width="57" height="57" x="1541" y="1541" viewBox="0 0 3.4 3.4"><circle cx="1.7" cy="1.7" r="1.7" class="B"/></svg><svg width="57" height="57" x="1655" y="1541" viewBox="0 0 3.4 3.4"><circle cx="1.7" cy="1.7" r="1.7" class="B"/></svg><svg width="57" height="57" x="1712" y="1541" viewBox="0 0 3.4 3.4"><circle cx="1.7" cy="1.7" r="1.7" class="B"/></svg><svg width="57" height="57" x="1769" y="1541" viewBox="0 0 3.4 3.4"><circle cx="1.7" cy="1.7" r="1.7" class="B"/></svg><svg width="57" height="57" x="629" y="1598" viewBox="0 0 3.4 3.4"><circle cx="1.7" cy="1.7" r="1.7" class="B"/></svg><svg width="57" height="57" x="743" y="1598" viewBox="0 0 3.4 3.4"><circle cx="1.7" cy="1.7" r="1.7" class="B"/></svg><svg width="57" height="57" x="1028" y="1598" viewBox="0 0 3.4 3.4"><circle cx="1.7" cy="1.7" r="1.7" class="B"/></svg><svg width="57" height="57" x="1313" y="1598" viewBox="0 0 3.4 3.4"><circle cx="1.7" cy="1.7" r="1.7" class="B"/></svg><svg width="57" height="57" x="1427" y="1598" viewBox="0 0 3.4 3.4"><circle cx="1.7" cy="1.7" r="1.7" class="B"/></svg><svg width="57" height="57" x="1484" y="1598" viewBox="0 0 3.4 3.4"><circle cx="1.7" cy="1.7" r="1.7" class="B"/></svg><svg width="57" height="57" x="629" y="1655" viewBox="0 0 3.4 3.4"><circle cx="1.7" cy="1.7" r="1.7" class="B"/></svg><svg width="57" height="57" x="743" y="1655" viewBox="0 0 3.4 3.4"><circle cx="1.7" cy="1.7" r="1.7" class="B"/></svg><svg width="57" height="57" x="800" y="1655" viewBox="0 0 3.4 3.4"><circle cx="1.7" cy="1.7" r="1.7" class="B"/></svg><svg width="57" height="57" x="857" y="1655" viewBox="0 0 3.4 3.4"><circle cx="1.7" cy="1.7" r="1.7" class="B"/></svg><svg width="57" height="57" x="1028" y="1655" viewBox="0 0 3.4 3.4"><circle cx="1.7" cy="1.7" r="1.7" class="B"/></svg><svg width="57" height="57" x="1085" y="1655" viewBox="0 0 3.4 3.4"><circle cx="1.7" cy="1.7" r="1.7" class="B"/></svg><svg width="57" height="57" x="1142" y="1655" viewBox="0 0 3.4 3.4"><circle cx="1.7" cy="1.7" r="1.7" class="B"/></svg><svg width="57" height="57" x="1199" y="1655" viewBox="0 0 3.4 3.4"><circle cx="1.7" cy="1.7" r="1.7" class="B"/></svg><svg width="57" height="57" x="1370" y="1655" viewBox="0 0 3.4 3.4"><circle cx="1.7" cy="1.7" r="1.7" class="B"/></svg><svg width="57" height="57" x="1427" y="1655" viewBox="0 0 3.4 3.4"><circle cx="1.7" cy="1.7" r="1.7" class="B"/></svg><svg width="57" height="57" x="1484" y="1655" viewBox="0 0 3.4 3.4"><circle cx="1.7" cy="1.7" r="1.7" class="B"/></svg><svg width="57" height="57" x="1655" y="1655" viewBox="0 0 3.4 3.4"><circle cx="1.7" cy="1.7" r="1.7" class="B"/></svg><svg width="57" height="57" x="1712" y="1655" viewBox="0 0 3.4 3.4"><circle cx="1.7" cy="1.7" r="1.7" class="B"/></svg><svg width="57" height="57" x="629" y="1712" viewBox="0 0 3.4 3.4"><circle cx="1.7" cy="1.7" r="1.7" class="B"/></svg><svg width="57" height="57" x="743" y="1712" viewBox="0 0 3.4 3.4"><circle cx="1.7" cy="1.7" r="1.7" class="B"/></svg><svg width="57" height="57" x="800" y="1712" viewBox="0 0 3.4 3.4"><circle cx="1.7" cy="1.7" r="1.7" class="B"/></svg><svg width="57" height="57" x="1028" y="1712" viewBox="0 0 3.4 3.4"><circle cx="1.7" cy="1.7" r="1.7" class="B"/></svg><svg width="57" height="57" x="1085" y="1712" viewBox="0 0 3.4 3.4"><circle cx="1.7" cy="1.7" r="1.7" class="B"/></svg><svg width="57" height="57" x="1142" y="1712" viewBox="0 0 3.4 3.4"><circle cx="1.7" cy="1.7" r="1.7" class="B"/></svg><svg width="57" height="57" x="1199" y="1712" viewBox="0 0 3.4 3.4"><circle cx="1.7" cy="1.7" r="1.7" class="B"/></svg><svg width="57" height="57" x="1598" y="1712" viewBox="0 0 3.4 3.4"><circle cx="1.7" cy="1.7" r="1.7" class="B"/></svg><svg width="57" height="57" x="1655" y="1712" viewBox="0 0 3.4 3.4"><circle cx="1.7" cy="1.7" r="1.7" class="B"/></svg><svg width="57" height="57" x="1769" y="1712" viewBox="0 0 3.4 3.4"><circle cx="1.7" cy="1.7" r="1.7" class="B"/></svg><svg width="57" height="57" x="629" y="1769" viewBox="0 0 3.4 3.4"><circle cx="1.7" cy="1.7" r="1.7" class="B"/></svg><svg width="57" height="57" x="743" y="1769" viewBox="0 0 3.4 3.4"><circle cx="1.7" cy="1.7" r="1.7" class="B"/></svg><svg width="57" height="57" x="800" y="1769" viewBox="0 0 3.4 3.4"><circle cx="1.7" cy="1.7" r="1.7" class="B"/></svg><svg width="57" height="57" x="857" y="1769" viewBox="0 0 3.4 3.4"><circle cx="1.7" cy="1.7" r="1.7" class="B"/></svg><svg width="57" height="57" x="1028" y="1769" viewBox="0 0 3.4 3.4"><circle cx="1.7" cy="1.7" r="1.7" class="B"/></svg><svg width="57" height="57" x="1085" y="1769" viewBox="0 0 3.4 3.4"><circle cx="1.7" cy="1.7" r="1.7" class="B"/></svg><svg width="57" height="57" x="1142" y="1769" viewBox="0 0 3.4 3.4"><circle cx="1.7" cy="1.7" r="1.7" class="B"/></svg><svg width="57" height="57" x="1256" y="1769" viewBox="0 0 3.4 3.4"><circle cx="1.7" cy="1.7" r="1.7" class="B"/></svg><svg width="57" height="57" x="1427" y="1769" viewBox="0 0 3.4 3.4"><circle cx="1.7" cy="1.7" r="1.7" class="B"/></svg><svg width="57" height="57" x="1541" y="1769" viewBox="0 0 3.4 3.4"><circle cx="1.7" cy="1.7" r="1.7" class="B"/></svg><svg width="57" height="57" x="1598" y="1769" viewBox="0 0 3.4 3.4"><circle cx="1.7" cy="1.7" r="1.7" class="B"/></svg><svg width="57" height="57" x="1655" y="1769" viewBox="0 0 3.4 3.4"><circle cx="1.7" cy="1.7" r="1.7" class="B"/></svg><svg xml:space="preserve" width="399" height="399" x="173" y="173" viewBox="0 0 700 700"><use href="#A"/></svg><svg xml:space="preserve" width="399" height="399" x="173" y="173" viewBox="0 0 700 700"><use href="#B"/></svg><svg xml:space="preserve" width="399" height="399" x="1427" y="173" viewBox="0 0 700 700"><use href="#A"/></svg><svg xml:space="preserve" width="399" height="399" x="1427" y="173" viewBox="0 0 700 700"><use href="#B"/></svg><svg xml:space="preserve" width="399" height="399" x="173" y="1427" viewBox="0 0 700 700"><use href="#A"/></svg><svg xml:space="preserve" width="399" height="399" x="173" y="1427" viewBox="0 0 700 700"><use href="#B"/></svg></svg>