<svg xmlns="http://www.w3.org/2000/svg" xml:space="preserve" viewBox="0 0 594 594">
  <path fill="#0074de" d="M189 36a9 9 0 1 1 0 18 9 9 0 0 1 0-18zm36 0a9 9 0 1 1 0 18 9 9 0 0 1 0-18zm90 0a9 9 0 1 1 0 18 9 9 0 0 1 0-18z"/>
  <path fill="#0074de" d="M333 36a9 9 0 1 1 0 18 9 9 0 0 1 0-18zm54 0a9 9 0 1 1 0 18 9 9 0 0 1 0-18z"/>
  <path fill="#0074de" d="M405 36a9 9 0 1 1 0 18 9 9 0 0 1 0-18zM189 54a9 9 0 1 1 0 18 9 9 0 0 1 0-18z"/>
  <path fill="#0074de" d="M207 54a9 9 0 1 1 0 18 9 9 0 0 1 0-18zm90 0a9 9 0 1 1 0 18 9 9 0 0 1 0-18z"/>
  <path fill="#0074de" d="M315 54a9 9 0 1 1 0 18 9 9 0 0 1 0-18zM207 72a9 9 0 1 1 0 18 9 9 0 0 1 0-18zm36 0a9 9 0 1 1 0 18 9 9 0 0 1 0-18z"/>
  <path fill="#0074de" d="M261 72a9 9 0 1 1 0 18 9 9 0 0 1 0-18z"/>
  <path fill="#0074de" d="M279 72a9 9 0 1 1 0 18 9 9 0 0 1 0-18z"/>
  <path fill="#0074de" d="M297 72a9 9 0 1 1 0 18 9 9 0 0 1 0-18z"/>
  <path fill="#0074de" d="M315 72a9 9 0 1 1 0 18 9 9 0 0 1 0-18zm54 0a9 9 0 1 1 0 18 9 9 0 0 1 0-18zM189 90a9 9 0 1 1 0 18 9 9 0 0 1 0-18z"/>
  <path fill="#0074de" d="M207 90a9 9 0 1 1 0 18 9 9 0 0 1 0-18z"/>
  <path fill="#0074de" d="M225 90a9 9 0 1 1 0 18 9 9 0 0 1 0-18zm108 0a9 9 0 1 1 0 18 9 9 0 0 1 0-18zm54 0a9 9 0 1 1 0 18 9 9 0 0 1 0-18zm-180 18a9 9 0 1 1 0 18 9 9 0 0 1 0-18z"/>
  <path fill="#0074de" d="M225 108a9 9 0 1 1 0 18 9 9 0 0 1 0-18z"/>
  <path fill="#0074de" d="M243 108a9 9 0 1 1 0 18 9 9 0 0 1 0-18zm36 0a9 9 0 1 1 0 18 9 9 0 0 1 0-18zm90 0a9 9 0 1 1 0 18 9 9 0 0 1 0-18zm-126 18a9 9 0 1 1 0 18 9 9 0 0 1 0-18zm54 0a9 9 0 1 1 0 18 9 9 0 0 1 0-18zm54 0a9 9 0 1 1 0 18 9 9 0 0 1 0-18z"/>
  <path fill="#0074de" d="M369 126a9 9 0 1 1 0 18 9 9 0 0 1 0-18z"/>
  <path fill="#0074de" d="M387 126a9 9 0 1 1 0 18 9 9 0 0 1 0-18zm-198 18a9 9 0 1 1 0 18 9 9 0 0 1 0-18zm36 0a9 9 0 1 1 0 18 9 9 0 0 1 0-18zm36 0a9 9 0 1 1 0 18 9 9 0 0 1 0-18zm36 0a9 9 0 1 1 0 18 9 9 0 0 1 0-18zm36 0a9 9 0 1 1 0 18 9 9 0 0 1 0-18zm36 0a9 9 0 1 1 0 18 9 9 0 0 1 0-18zm36 0a9 9 0 1 1 0 18 9 9 0 0 1 0-18zm-216 18a9 9 0 1 1 0 18 9 9 0 0 1 0-18z"/>
  <path fill="#0074de" d="M207 162a9 9 0 1 1 0 18 9 9 0 0 1 0-18z"/>
  <path fill="#0074de" d="M225 162a9 9 0 1 1 0 18 9 9 0 0 1 0-18z"/>
  <path fill="#0074de" d="M243 162a9 9 0 1 1 0 18 9 9 0 0 1 0-18z"/>
  <path fill="#0074de" d="M261 162a9 9 0 1 1 0 18 9 9 0 0 1 0-18z"/>
  <path fill="#0074de" d="M279 162a9 9 0 1 1 0 18 9 9 0 0 1 0-18z"/>
  <path fill="#0074de" d="M297 162a9 9 0 1 1 0 18 9 9 0 0 1 0-18zm54 0a9 9 0 1 1 0 18 9 9 0 0 1 0-18z"/>
  <path fill="#0074de" d="M369 162a9 9 0 1 1 0 18 9 9 0 0 1 0-18zm36 0a9 9 0 1 1 0 18 9 9 0 0 1 0-18zM45 180a9 9 0 1 1 0 18 9 9 0 0 1 0-18zm36 0a9 9 0 1 1 0 18 9 9 0 0 1 0-18z"/>
  <path fill="#0074de" d="M99 180a9 9 0 1 1 0 18 9 9 0 0 1 0-18zm36 0a9 9 0 1 1 0 18 9 9 0 0 1 0-18z"/>
  <path fill="#0074de" d="M153 180a9 9 0 1 1 0 18 9 9 0 0 1 0-18z"/>
  <path fill="#0074de" d="M171 180a9 9 0 1 1 0 18 9 9 0 0 1 0-18zm36 0a9 9 0 1 1 0 18 9 9 0 0 1 0-18z"/>
  <path fill="#0074de" d="M225 180a9 9 0 1 1 0 18 9 9 0 0 1 0-18z"/>
  <path fill="#0074de" d="M243 180a9 9 0 1 1 0 18 9 9 0 0 1 0-18zm36 0a9 9 0 1 1 0 18 9 9 0 0 1 0-18z"/>
  <path fill="#0074de" d="M297 180a9 9 0 1 1 0 18 9 9 0 0 1 0-18zm36 0a9 9 0 1 1 0 18 9 9 0 0 1 0-18z"/>
  <path fill="#0074de" d="M351 180a9 9 0 1 1 0 18 9 9 0 0 1 0-18z"/>
  <path fill="#0074de" d="M369 180a9 9 0 1 1 0 18 9 9 0 0 1 0-18z"/>
  <path fill="#0074de" d="M387 180a9 9 0 1 1 0 18 9 9 0 0 1 0-18z"/>
  <path fill="#0074de" d="M405 180a9 9 0 1 1 0 18 9 9 0 0 1 0-18zm36 0a9 9 0 1 1 0 18 9 9 0 0 1 0-18zm54 0a9 9 0 1 1 0 18 9 9 0 0 1 0-18zm36 0a9 9 0 1 1 0 18 9 9 0 0 1 0-18z"/>
  <path fill="#0074de" d="M549 180a9 9 0 1 1 0 18 9 9 0 0 1 0-18zm-432 18a9 9 0 1 1 0 18 9 9 0 0 1 0-18z"/>
  <path fill="#0074de" d="M135 198a9 9 0 1 1 0 18 9 9 0 0 1 0-18zm36 0a9 9 0 1 1 0 18 9 9 0 0 1 0-18zm36 0a9 9 0 1 1 0 18 9 9 0 0 1 0-18z"/>
  <path fill="#0074de" d="M225 198a9 9 0 1 1 0 18 9 9 0 0 1 0-18zm90 0a9 9 0 1 1 0 18 9 9 0 0 1 0-18z"/>
  <path fill="#0074de" d="M333 198a9 9 0 1 1 0 18 9 9 0 0 1 0-18z"/>
  <path fill="#0074de" d="M351 198a9 9 0 1 1 0 18 9 9 0 0 1 0-18z"/>
  <path fill="#0074de" d="M369 198a9 9 0 1 1 0 18 9 9 0 0 1 0-18zm36 0a9 9 0 1 1 0 18 9 9 0 0 1 0-18z"/>
  <path fill="#0074de" d="M423 198a9 9 0 1 1 0 18 9 9 0 0 1 0-18z"/>
  <path fill="#0074de" d="M441 198a9 9 0 1 1 0 18 9 9 0 0 1 0-18z"/>
  <path fill="#0074de" d="M459 198a9 9 0 1 1 0 18 9 9 0 0 1 0-18z"/>
  <path fill="#0074de" d="M477 198a9 9 0 1 1 0 18 9 9 0 0 1 0-18zm72 0a9 9 0 1 1 0 18 9 9 0 0 1 0-18zM45 216a9 9 0 1 1 0 18 9 9 0 0 1 0-18zm90 0a9 9 0 1 1 0 18 9 9 0 0 1 0-18z"/>
  <path fill="#0074de" d="M153 216a9 9 0 1 1 0 18 9 9 0 0 1 0-18z"/>
  <path fill="#0074de" d="M171 216a9 9 0 1 1 0 18 9 9 0 0 1 0-18z"/>
  <path fill="#0074de" d="M189 216a9 9 0 1 1 0 18 9 9 0 0 1 0-18zm36 0a9 9 0 1 1 0 18 9 9 0 0 1 0-18zm72 0a9 9 0 1 1 0 18 9 9 0 0 1 0-18z"/>
  <path fill="#0074de" d="M315 216a9 9 0 1 1 0 18 9 9 0 0 1 0-18zm54 0a9 9 0 1 1 0 18 9 9 0 0 1 0-18zm54 0a9 9 0 1 1 0 18 9 9 0 0 1 0-18z"/>
  <path fill="#0074de" d="M441 216a9 9 0 1 1 0 18 9 9 0 0 1 0-18zm72 0a9 9 0 1 1 0 18 9 9 0 0 1 0-18z"/>
  <path fill="#0074de" d="M531 216a9 9 0 1 1 0 18 9 9 0 0 1 0-18zM45 234a9 9 0 1 1 0 18 9 9 0 0 1 0-18z"/>
  <path fill="#0074de" d="M63 234a9 9 0 1 1 0 18 9 9 0 0 1 0-18zm54 0a9 9 0 1 1 0 18 9 9 0 0 1 0-18z"/>
  <path fill="#0074de" d="M135 234a9 9 0 1 1 0 18 9 9 0 0 1 0-18zm72 0a9 9 0 1 1 0 18 9 9 0 0 1 0-18z"/>
  <path fill="#0074de" d="M225 234a9 9 0 1 1 0 18 9 9 0 0 1 0-18z"/>
  <path fill="#0074de" d="M243 234a9 9 0 1 1 0 18 9 9 0 0 1 0-18z"/>
  <path fill="#0074de" d="M261 234a9 9 0 1 1 0 18 9 9 0 0 1 0-18z"/>
  <path fill="#0074de" d="M279 234a9 9 0 1 1 0 18 9 9 0 0 1 0-18z"/>
  <path fill="#0074de" d="M297 234a9 9 0 1 1 0 18 9 9 0 0 1 0-18z"/>
  <path fill="#0074de" d="M315 234a9 9 0 1 1 0 18 9 9 0 0 1 0-18zm54 0a9 9 0 1 1 0 18 9 9 0 0 1 0-18zm36 0a9 9 0 1 1 0 18 9 9 0 0 1 0-18z"/>
  <path fill="#0074de" d="M423 234a9 9 0 1 1 0 18 9 9 0 0 1 0-18zm36 0a9 9 0 1 1 0 18 9 9 0 0 1 0-18z"/>
  <path fill="#0074de" d="M477 234a9 9 0 1 1 0 18 9 9 0 0 1 0-18zm72 0a9 9 0 1 1 0 18 9 9 0 0 1 0-18zM45 252a9 9 0 1 1 0 18 9 9 0 0 1 0-18zm36 0a9 9 0 1 1 0 18 9 9 0 0 1 0-18zm36 0a9 9 0 1 1 0 18 9 9 0 0 1 0-18zm36 0a9 9 0 1 1 0 18 9 9 0 0 1 0-18z"/>
  <path fill="#0074de" d="M171 252a9 9 0 1 1 0 18 9 9 0 0 1 0-18z"/>
  <path fill="#0074de" d="M189 252a9 9 0 1 1 0 18 9 9 0 0 1 0-18zm54 0a9 9 0 1 1 0 18 9 9 0 0 1 0-18zm108 0a9 9 0 1 1 0 18 9 9 0 0 1 0-18zm36 0a9 9 0 1 1 0 18 9 9 0 0 1 0-18zm36 0a9 9 0 1 1 0 18 9 9 0 0 1 0-18zm72 0a9 9 0 1 1 0 18 9 9 0 0 1 0-18z"/>
  <path fill="#0074de" d="M513 252a9 9 0 1 1 0 18 9 9 0 0 1 0-18zM45 270a9 9 0 1 1 0 18 9 9 0 0 1 0-18z"/>
  <path fill="#0074de" d="M63 270a9 9 0 1 1 0 18 9 9 0 0 1 0-18z"/>
  <path fill="#0074de" d="M81 270a9 9 0 1 1 0 18 9 9 0 0 1 0-18z"/>
  <path fill="#0074de" d="M99 270a9 9 0 1 1 0 18 9 9 0 0 1 0-18zm36 0a9 9 0 1 1 0 18 9 9 0 0 1 0-18zm90 0a9 9 0 1 1 0 18 9 9 0 0 1 0-18z"/>
  <path fill="#0074de" d="M243 270a9 9 0 1 1 0 18 9 9 0 0 1 0-18z"/>
  <path fill="#0074de" d="M261 270a9 9 0 1 1 0 18 9 9 0 0 1 0-18z"/>
  <path fill="#0074de" d="M279 270a9 9 0 1 1 0 18 9 9 0 0 1 0-18zm72 0a9 9 0 1 1 0 18 9 9 0 0 1 0-18zm36 0a9 9 0 1 1 0 18 9 9 0 0 1 0-18z"/>
  <path fill="#0074de" d="M405 270a9 9 0 1 1 0 18 9 9 0 0 1 0-18zm36 0a9 9 0 1 1 0 18 9 9 0 0 1 0-18zm72 0a9 9 0 1 1 0 18 9 9 0 0 1 0-18z"/>
  <path fill="#0074de" d="M531 270a9 9 0 1 1 0 18 9 9 0 0 1 0-18z"/>
  <path fill="#0074de" d="M549 270a9 9 0 1 1 0 18 9 9 0 0 1 0-18zM45 288a9 9 0 1 1 0 18 9 9 0 0 1 0-18z"/>
  <path fill="#0074de" d="M63 288a9 9 0 1 1 0 18 9 9 0 0 1 0-18z"/>
  <path fill="#0074de" d="M81 288a9 9 0 1 1 0 18 9 9 0 0 1 0-18zm36 0a9 9 0 1 1 0 18 9 9 0 0 1 0-18zm36 0a9 9 0 1 1 0 18 9 9 0 0 1 0-18zm36 0a9 9 0 1 1 0 18 9 9 0 0 1 0-18z"/>
  <path fill="#0074de" d="M207 288a9 9 0 1 1 0 18 9 9 0 0 1 0-18zm36 0a9 9 0 1 1 0 18 9 9 0 0 1 0-18z"/>
  <path fill="#0074de" d="M261 288a9 9 0 1 1 0 18 9 9 0 0 1 0-18zm36 0a9 9 0 1 1 0 18 9 9 0 0 1 0-18zm36 0a9 9 0 1 1 0 18 9 9 0 0 1 0-18z"/>
  <path fill="#0074de" d="M351 288a9 9 0 1 1 0 18 9 9 0 0 1 0-18z"/>
  <path fill="#0074de" d="M369 288a9 9 0 1 1 0 18 9 9 0 0 1 0-18z"/>
  <path fill="#0074de" d="M387 288a9 9 0 1 1 0 18 9 9 0 0 1 0-18z"/>
  <path fill="#0074de" d="M405 288a9 9 0 1 1 0 18 9 9 0 0 1 0-18z"/>
  <path fill="#0074de" d="M423 288a9 9 0 1 1 0 18 9 9 0 0 1 0-18zm54 0a9 9 0 1 1 0 18 9 9 0 0 1 0-18zm36 0a9 9 0 1 1 0 18 9 9 0 0 1 0-18z"/>
  <path fill="#0074de" d="M531 288a9 9 0 1 1 0 18 9 9 0 0 1 0-18z"/>
  <path fill="#0074de" d="M549 288a9 9 0 1 1 0 18 9 9 0 0 1 0-18zM63 306a9 9 0 1 1 0 18 9 9 0 0 1 0-18z"/>
  <path fill="#0074de" d="M81 306a9 9 0 1 1 0 18 9 9 0 0 1 0-18z"/>
  <path fill="#0074de" d="M99 306a9 9 0 1 1 0 18 9 9 0 0 1 0-18zm72 0a9 9 0 1 1 0 18 9 9 0 0 1 0-18zm36 0a9 9 0 1 1 0 18 9 9 0 0 1 0-18z"/>
  <path fill="#0074de" d="M225 306a9 9 0 1 1 0 18 9 9 0 0 1 0-18zm36 0a9 9 0 1 1 0 18 9 9 0 0 1 0-18z"/>
  <path fill="#0074de" d="M279 306a9 9 0 1 1 0 18 9 9 0 0 1 0-18zm54 0a9 9 0 1 1 0 18 9 9 0 0 1 0-18zm36 0a9 9 0 1 1 0 18 9 9 0 0 1 0-18zm36 0a9 9 0 1 1 0 18 9 9 0 0 1 0-18z"/>
  <path fill="#0074de" d="M423 306a9 9 0 1 1 0 18 9 9 0 0 1 0-18z"/>
  <path fill="#0074de" d="M441 306a9 9 0 1 1 0 18 9 9 0 0 1 0-18z"/>
  <path fill="#0074de" d="M459 306a9 9 0 1 1 0 18 9 9 0 0 1 0-18zm72 0a9 9 0 1 1 0 18 9 9 0 0 1 0-18zM45 324a9 9 0 1 1 0 18 9 9 0 0 1 0-18z"/>
  <path fill="#0074de" d="M63 324a9 9 0 1 1 0 18 9 9 0 0 1 0-18zm36 0a9 9 0 1 1 0 18 9 9 0 0 1 0-18z"/>
  <path fill="#0074de" d="M117 324a9 9 0 1 1 0 18 9 9 0 0 1 0-18z"/>
  <path fill="#0074de" d="M135 324a9 9 0 1 1 0 18 9 9 0 0 1 0-18z"/>
  <path fill="#0074de" d="M153 324a9 9 0 1 1 0 18 9 9 0 0 1 0-18zm36 0a9 9 0 1 1 0 18 9 9 0 0 1 0-18z"/>
  <path fill="#0074de" d="M207 324a9 9 0 1 1 0 18 9 9 0 0 1 0-18zm36 0a9 9 0 1 1 0 18 9 9 0 0 1 0-18z"/>
  <path fill="#0074de" d="M261 324a9 9 0 1 1 0 18 9 9 0 0 1 0-18zm54 0a9 9 0 1 1 0 18 9 9 0 0 1 0-18zm36 0a9 9 0 1 1 0 18 9 9 0 0 1 0-18z"/>
  <path fill="#0074de" d="M369 324a9 9 0 1 1 0 18 9 9 0 0 1 0-18zm54 0a9 9 0 1 1 0 18 9 9 0 0 1 0-18zm36 0a9 9 0 1 1 0 18 9 9 0 0 1 0-18z"/>
  <path fill="#0074de" d="M477 324a9 9 0 1 1 0 18 9 9 0 0 1 0-18z"/>
  <path fill="#0074de" d="M495 324a9 9 0 1 1 0 18 9 9 0 0 1 0-18zm36 0a9 9 0 1 1 0 18 9 9 0 0 1 0-18zm-414 18a9 9 0 1 1 0 18 9 9 0 0 1 0-18z"/>
  <path fill="#0074de" d="M135 342a9 9 0 1 1 0 18 9 9 0 0 1 0-18zm36 0a9 9 0 1 1 0 18 9 9 0 0 1 0-18z"/>
  <path fill="#0074de" d="M189 342a9 9 0 1 1 0 18 9 9 0 0 1 0-18zm36 0a9 9 0 1 1 0 18 9 9 0 0 1 0-18zm54 0a9 9 0 1 1 0 18 9 9 0 0 1 0-18zm36 0a9 9 0 1 1 0 18 9 9 0 0 1 0-18zm36 0a9 9 0 1 1 0 18 9 9 0 0 1 0-18z"/>
  <path fill="#0074de" d="M369 342a9 9 0 1 1 0 18 9 9 0 0 1 0-18zm36 0a9 9 0 1 1 0 18 9 9 0 0 1 0-18zm54 0a9 9 0 1 1 0 18 9 9 0 0 1 0-18zm36 0a9 9 0 1 1 0 18 9 9 0 0 1 0-18z"/>
  <path fill="#0074de" d="M513 342a9 9 0 1 1 0 18 9 9 0 0 1 0-18z"/>
  <path fill="#0074de" d="M531 342a9 9 0 1 1 0 18 9 9 0 0 1 0-18zM45 360a9 9 0 1 1 0 18 9 9 0 0 1 0-18zm54 0a9 9 0 1 1 0 18 9 9 0 0 1 0-18zm54 0a9 9 0 1 1 0 18 9 9 0 0 1 0-18z"/>
  <path fill="#0074de" d="M171 360a9 9 0 1 1 0 18 9 9 0 0 1 0-18zm36 0a9 9 0 1 1 0 18 9 9 0 0 1 0-18zm36 0a9 9 0 1 1 0 18 9 9 0 0 1 0-18z"/>
  <path fill="#0074de" d="M261 360a9 9 0 1 1 0 18 9 9 0 0 1 0-18zm54 0a9 9 0 1 1 0 18 9 9 0 0 1 0-18z"/>
  <path fill="#0074de" d="M333 360a9 9 0 1 1 0 18 9 9 0 0 1 0-18z"/>
  <path fill="#0074de" d="M351 360a9 9 0 1 1 0 18 9 9 0 0 1 0-18zm54 0a9 9 0 1 1 0 18 9 9 0 0 1 0-18z"/>
  <path fill="#0074de" d="M423 360a9 9 0 1 1 0 18 9 9 0 0 1 0-18zm36 0a9 9 0 1 1 0 18 9 9 0 0 1 0-18z"/>
  <path fill="#0074de" d="M477 360a9 9 0 1 1 0 18 9 9 0 0 1 0-18zm36 0a9 9 0 1 1 0 18 9 9 0 0 1 0-18zM81 378a9 9 0 1 1 0 18 9 9 0 0 1 0-18z"/>
  <path fill="#0074de" d="M99 378a9 9 0 1 1 0 18 9 9 0 0 1 0-18zm36 0a9 9 0 1 1 0 18 9 9 0 0 1 0-18zm36 0a9 9 0 1 1 0 18 9 9 0 0 1 0-18z"/>
  <path fill="#0074de" d="M189 378a9 9 0 1 1 0 18 9 9 0 0 1 0-18zm72 0a9 9 0 1 1 0 18 9 9 0 0 1 0-18zm54 0a9 9 0 1 1 0 18 9 9 0 0 1 0-18z"/>
  <path fill="#0074de" d="M333 378a9 9 0 1 1 0 18 9 9 0 0 1 0-18z"/>
  <path fill="#0074de" d="M351 378a9 9 0 1 1 0 18 9 9 0 0 1 0-18z"/>
  <path fill="#0074de" d="M369 378a9 9 0 1 1 0 18 9 9 0 0 1 0-18z"/>
  <path fill="#0074de" d="M387 378a9 9 0 1 1 0 18 9 9 0 0 1 0-18zm36 0a9 9 0 1 1 0 18 9 9 0 0 1 0-18z"/>
  <path fill="#0074de" d="M441 378a9 9 0 1 1 0 18 9 9 0 0 1 0-18zm72 0a9 9 0 1 1 0 18 9 9 0 0 1 0-18zM63 396a9 9 0 1 1 0 18 9 9 0 0 1 0-18z"/>
  <path fill="#0074de" d="M81 396a9 9 0 1 1 0 18 9 9 0 0 1 0-18z"/>
  <path fill="#0074de" d="M99 396a9 9 0 1 1 0 18 9 9 0 0 1 0-18zm54 0a9 9 0 1 1 0 18 9 9 0 0 1 0-18zm72 0a9 9 0 1 1 0 18 9 9 0 0 1 0-18zm36 0a9 9 0 1 1 0 18 9 9 0 0 1 0-18z"/>
  <path fill="#0074de" d="M279 396a9 9 0 1 1 0 18 9 9 0 0 1 0-18zm36 0a9 9 0 1 1 0 18 9 9 0 0 1 0-18z"/>
  <path fill="#0074de" d="M333 396a9 9 0 1 1 0 18 9 9 0 0 1 0-18zm36 0a9 9 0 1 1 0 18 9 9 0 0 1 0-18zm36 0a9 9 0 1 1 0 18 9 9 0 0 1 0-18z"/>
  <path fill="#0074de" d="M423 396a9 9 0 1 1 0 18 9 9 0 0 1 0-18z"/>
  <path fill="#0074de" d="M441 396a9 9 0 1 1 0 18 9 9 0 0 1 0-18z"/>
  <path fill="#0074de" d="M459 396a9 9 0 1 1 0 18 9 9 0 0 1 0-18z"/>
  <path fill="#0074de" d="M477 396a9 9 0 1 1 0 18 9 9 0 0 1 0-18z"/>
  <path fill="#0074de" d="M495 396a9 9 0 1 1 0 18 9 9 0 0 1 0-18z"/>
  <path fill="#0074de" d="M513 396a9 9 0 1 1 0 18 9 9 0 0 1 0-18zm-324 18a9 9 0 1 1 0 18 9 9 0 0 1 0-18zm54 0a9 9 0 1 1 0 18 9 9 0 0 1 0-18z"/>
  <path fill="#0074de" d="M261 414a9 9 0 1 1 0 18 9 9 0 0 1 0-18z"/>
  <path fill="#0074de" d="M279 414a9 9 0 1 1 0 18 9 9 0 0 1 0-18z"/>
  <path fill="#0074de" d="M297 414a9 9 0 1 1 0 18 9 9 0 0 1 0-18zm36 0a9 9 0 1 1 0 18 9 9 0 0 1 0-18zm72 0a9 9 0 1 1 0 18 9 9 0 0 1 0-18zm72 0a9 9 0 1 1 0 18 9 9 0 0 1 0-18z"/>
  <path fill="#0074de" d="M495 414a9 9 0 1 1 0 18 9 9 0 0 1 0-18z"/>
  <path fill="#0074de" d="M513 414a9 9 0 1 1 0 18 9 9 0 0 1 0-18z"/>
  <path fill="#0074de" d="M531 414a9 9 0 1 1 0 18 9 9 0 0 1 0-18z"/>
  <path fill="#0074de" d="M549 414a9 9 0 1 1 0 18 9 9 0 0 1 0-18zm-360 18a9 9 0 1 1 0 18 9 9 0 0 1 0-18z"/>
  <path fill="#0074de" d="M207 432a9 9 0 1 1 0 18 9 9 0 0 1 0-18z"/>
  <path fill="#0074de" d="M225 432a9 9 0 1 1 0 18 9 9 0 0 1 0-18z"/>
  <path fill="#0074de" d="M243 432a9 9 0 1 1 0 18 9 9 0 0 1 0-18z"/>
  <path fill="#0074de" d="M261 432a9 9 0 1 1 0 18 9 9 0 0 1 0-18z"/>
  <path fill="#0074de" d="M279 432a9 9 0 1 1 0 18 9 9 0 0 1 0-18zm54 0a9 9 0 1 1 0 18 9 9 0 0 1 0-18z"/>
  <path fill="#0074de" d="M351 432a9 9 0 1 1 0 18 9 9 0 0 1 0-18z"/>
  <path fill="#0074de" d="M369 432a9 9 0 1 1 0 18 9 9 0 0 1 0-18z"/>
  <path fill="#0074de" d="M387 432a9 9 0 1 1 0 18 9 9 0 0 1 0-18z"/>
  <path fill="#0074de" d="M405 432a9 9 0 1 1 0 18 9 9 0 0 1 0-18zm36 0a9 9 0 1 1 0 18 9 9 0 0 1 0-18zm36 0a9 9 0 1 1 0 18 9 9 0 0 1 0-18z"/>
  <path fill="#0074de" d="M495 432a9 9 0 1 1 0 18 9 9 0 0 1 0-18zm36 0a9 9 0 1 1 0 18 9 9 0 0 1 0-18zm-342 18a9 9 0 1 1 0 18 9 9 0 0 1 0-18z"/>
  <path fill="#0074de" d="M207 450a9 9 0 1 1 0 18 9 9 0 0 1 0-18zm36 0a9 9 0 1 1 0 18 9 9 0 0 1 0-18z"/>
  <path fill="#0074de" d="M261 450a9 9 0 1 1 0 18 9 9 0 0 1 0-18zm54 0a9 9 0 1 1 0 18 9 9 0 0 1 0-18z"/>
  <path fill="#0074de" d="M333 450a9 9 0 1 1 0 18 9 9 0 0 1 0-18zm54 0a9 9 0 1 1 0 18 9 9 0 0 1 0-18z"/>
  <path fill="#0074de" d="M405 450a9 9 0 1 1 0 18 9 9 0 0 1 0-18zm72 0a9 9 0 1 1 0 18 9 9 0 0 1 0-18z"/>
  <path fill="#0074de" d="M495 450a9 9 0 1 1 0 18 9 9 0 0 1 0-18zm36 0a9 9 0 1 1 0 18 9 9 0 0 1 0-18z"/>
  <path fill="#0074de" d="M549 450a9 9 0 1 1 0 18 9 9 0 0 1 0-18zm-288 18a9 9 0 1 1 0 18 9 9 0 0 1 0-18zm36 0a9 9 0 1 1 0 18 9 9 0 0 1 0-18z"/>
  <path fill="#0074de" d="M315 468a9 9 0 1 1 0 18 9 9 0 0 1 0-18z"/>
  <path fill="#0074de" d="M333 468a9 9 0 1 1 0 18 9 9 0 0 1 0-18z"/>
  <path fill="#0074de" d="M351 468a9 9 0 1 1 0 18 9 9 0 0 1 0-18zm54 0a9 9 0 1 1 0 18 9 9 0 0 1 0-18z"/>
  <path fill="#0074de" d="M423 468a9 9 0 1 1 0 18 9 9 0 0 1 0-18z"/>
  <path fill="#0074de" d="M441 468a9 9 0 1 1 0 18 9 9 0 0 1 0-18z"/>
  <path fill="#0074de" d="M459 468a9 9 0 1 1 0 18 9 9 0 0 1 0-18z"/>
  <path fill="#0074de" d="M477 468a9 9 0 1 1 0 18 9 9 0 0 1 0-18zm36 0a9 9 0 1 1 0 18 9 9 0 0 1 0-18z"/>
  <path fill="#0074de" d="M531 468a9 9 0 1 1 0 18 9 9 0 0 1 0-18zm-342 18a9 9 0 1 1 0 18 9 9 0 0 1 0-18zm54 0a9 9 0 1 1 0 18 9 9 0 0 1 0-18z"/>
  <path fill="#0074de" d="M261 486a9 9 0 1 1 0 18 9 9 0 0 1 0-18zm36 0a9 9 0 1 1 0 18 9 9 0 0 1 0-18z"/>
  <path fill="#0074de" d="M315 486a9 9 0 1 1 0 18 9 9 0 0 1 0-18z"/>
  <path fill="#0074de" d="M333 486a9 9 0 1 1 0 18 9 9 0 0 1 0-18z"/>
  <path fill="#0074de" d="M351 486a9 9 0 1 1 0 18 9 9 0 0 1 0-18z"/>
  <path fill="#0074de" d="M369 486a9 9 0 1 1 0 18 9 9 0 0 1 0-18z"/>
  <path fill="#0074de" d="M387 486a9 9 0 1 1 0 18 9 9 0 0 1 0-18z"/>
  <path fill="#0074de" d="M405 486a9 9 0 1 1 0 18 9 9 0 0 1 0-18z"/>
  <path fill="#0074de" d="M423 486a9 9 0 1 1 0 18 9 9 0 0 1 0-18zm36 0a9 9 0 1 1 0 18 9 9 0 0 1 0-18z"/>
  <path fill="#0074de" d="M477 486a9 9 0 1 1 0 18 9 9 0 0 1 0-18z"/>
  <path fill="#0074de" d="M495 486a9 9 0 1 1 0 18 9 9 0 0 1 0-18zm54 0a9 9 0 1 1 0 18 9 9 0 0 1 0-18zm-360 18a9 9 0 1 1 0 18 9 9 0 0 1 0-18zm90 0a9 9 0 1 1 0 18 9 9 0 0 1 0-18zm90 0a9 9 0 1 1 0 18 9 9 0 0 1 0-18zm36 0a9 9 0 1 1 0 18 9 9 0 0 1 0-18zm54 0a9 9 0 1 1 0 18 9 9 0 0 1 0-18zm54 0a9 9 0 1 1 0 18 9 9 0 0 1 0-18zm36 0a9 9 0 1 1 0 18 9 9 0 0 1 0-18zm-342 18a9 9 0 1 1 0 18 9 9 0 0 1 0-18z"/>
  <path fill="#0074de" d="M225 522a9 9 0 1 1 0 18 9 9 0 0 1 0-18zm36 0a9 9 0 1 1 0 18 9 9 0 0 1 0-18z"/>
  <path fill="#0074de" d="M279 522a9 9 0 1 1 0 18 9 9 0 0 1 0-18zm126 0a9 9 0 1 1 0 18 9 9 0 0 1 0-18zm36 0a9 9 0 1 1 0 18 9 9 0 0 1 0-18zm54 0a9 9 0 1 1 0 18 9 9 0 0 1 0-18zm36 0a9 9 0 1 1 0 18 9 9 0 0 1 0-18zm-342 18a9 9 0 1 1 0 18 9 9 0 0 1 0-18zm36 0a9 9 0 1 1 0 18 9 9 0 0 1 0-18z"/>
  <path fill="#0074de" d="M243 540a9 9 0 1 1 0 18 9 9 0 0 1 0-18zm36 0a9 9 0 1 1 0 18 9 9 0 0 1 0-18zm90 0a9 9 0 1 1 0 18 9 9 0 0 1 0-18z"/>
  <path fill="#0074de" d="M387 540a9 9 0 1 1 0 18 9 9 0 0 1 0-18z"/>
  <path fill="#0074de" d="M405 540a9 9 0 1 1 0 18 9 9 0 0 1 0-18z"/>
  <path fill="#0074de" d="M423 540a9 9 0 1 1 0 18 9 9 0 0 1 0-18z"/>
  <path fill="#0074de" d="M441 540a9 9 0 1 1 0 18 9 9 0 0 1 0-18zm54 0a9 9 0 1 1 0 18 9 9 0 0 1 0-18zm36 0a9 9 0 1 1 0 18 9 9 0 0 1 0-18z"/>
  <g fill="#0074de">
    <path fill="none" d="M79 55h64v88H55V79c0-13 11-24 24-24z"/>
    <path d="M162 36v126H36V79c0-24 19-43 43-43h83zm-19 19H79c-13 0-24 11-24 24v64h88V55z"/>
  </g>
  <g fill="#0074de">
    <path fill="none" d="M515 55h-64v88h88V79c0-13-11-24-24-24z"/>
    <path d="M432 36v126h126V79c0-24-19-43-43-43h-83zm19 19h64c13 0 24 11 24 24v64h-88V55z"/>
  </g>
  <g fill="#0074de">
    <path fill="none" d="M79 539h64v-88H55v64c0 13 11 24 24 24z"/>
    <path d="M162 558V432H36v83c0 24 19 43 43 43h83zm-19-19H79c-13 0-24-11-24-24v-64h88v88z"/>
  </g>
  <path fill="#0074de" d="M126 72v54H72V87c0-8 7-15 15-15h39zm342 0v54h54V87c0-8-7-15-15-15h-39zM126 522v-54H72v39c0 8 7 15 15 15h39z"/>
</svg>
